<svg xmlns="http://www.w3.org/2000/svg" viewBox="0 0 1200 1200" width="1200" height="1200">
<g fill="#B4502A" stroke="#B4502A">
<circle cx="600.0" cy="600.0" r="566" fill="none" stroke-width="26"/>
<circle cx="600.0" cy="600.0" r="518" fill="none" stroke-width="11" stroke-dasharray="16 40"/>
</g>
<g fill="#B4502A">
<path d="M605.7235336428292 180.9145851980273 609.2531220431595 128.81540321956223 641.073611738175 130.9711612766999Q645.120427288874 131.2453228409242 648.2889887792726 133.08034201349855Q651.4575502696712 134.91536118607291 653.1992059940426 137.9279739464947Q654.940861718414 140.94058670691646 654.6816647738378 144.7665140537063Q654.4506111468031 148.17702644108272 653.1076249737725 150.52361722119133Q651.7646388007421 152.87020800129997 649.7083959053739 154.24445600236174Q647.6521530100056 155.6187040034235 645.2159993947637 156.20878221733065L645.1954512613145 156.51208697201108Q647.953333613109 157.30832023533787 650.1003071555695 159.0434997766767Q652.2472806980298 160.7786793180155 653.3989106513582 163.50540828888643Q654.5505406046865 166.23213725975737 654.2914565343785 170.05639850376878Q653.9878122112966 174.53840010018473 651.6756146029614 177.53967393346915Q649.3634169946263 180.54094776675356 645.7524051450822 181.9613756304975Q642.1413932955381 183.38180349424144 637.7912729901587 183.08709379656798ZM620.0378980213766 171.40053697679107 634.8191546017372 172.4019298929008Q637.1862793802698 172.56229663654557 638.7780067685051 171.22529560431929Q640.3697341567404 169.88829457209303 640.5716436477221 166.9079699220984Q640.6791877421597 165.32054421934896 640.1146846729778 164.0345201371219Q639.5501816037959 162.74849605489482 638.3438963655747 161.97705819967808Q637.1376111273536 161.20562034446135 635.307860031613 161.08165931479132L620.803546757528 160.09902861037588ZM621.455611371734 150.47410095760742 634.9890310200883 151.39095606345876Q636.6869008247922 151.50598246772037 637.8965952941992 150.89491084957115Q639.106289763606 150.2838392314219 639.8212764924805 149.09195484632016Q640.536263221355 147.90007046121843 640.6488314748865 146.23848467257727Q640.8134422910161 143.80871442957704 639.474320235702 142.3460196317664Q638.1351981803879 140.88332483395578 635.95434369248 140.73557743349735L622.1785986511345 139.80230539241353Z"/>
<path d="M681.9272075979175 188.9502380460634 694.9057120464041 138.37019080032053 724.2812719716264 145.90776452606224Q729.9160346104634 147.35360722405352 733.1143593458598 150.42749308684157Q736.3126840812562 153.5013789496296 737.265859753116 157.59741723174244Q738.2190354249758 161.69345551385527 737.0630972803061 166.19839721978207Q735.807788059743 171.09060956490373 732.5865325919308 174.30485218108987Q729.3652771241186 177.51909479727604 724.7531826758603 178.58887893142958L729.7865833492608 201.23063624483893L715.0925130244945 197.46023531678512L711.2275059001533 177.48405631787168L699.7081633826054 174.52826947605092L695.1377948569503 192.33998706459383ZM702.2187633772726 164.74391667566078 715.8472822978906 168.24090418494814Q718.567881902437 168.93899198819997 720.655961923607 167.56182649947038Q722.7440419447772 166.18466101074083 723.5328771042307 163.11039927337117Q724.0330343999017 161.16117779367374 723.6679596630786 159.57927087459748Q723.3028849262554 157.99736395552122 722.170801888077 156.87193628084515Q721.0387188498987 155.7465086061691 719.1759089737492 155.26852395449743L705.5473900531312 151.7715364452101Z"/>
<path d="M778.0738670935624 222.26862157969083Q770.3449489885032 218.62426742144513 766.0706512758895 213.3053853239164Q761.7963535632759 207.98650322638767 761.419630594394 201.14806583206047Q761.0429076255122 194.30962843773327 764.879635494134 186.1727256559654Q768.7487764733154 177.96708140007993 774.2481794881523 173.9413785834388Q779.7475825029892 169.91567576679765 786.5705351271968 169.82939024492876Q793.3934877514043 169.74310472305987 801.1224058564636 173.38745888130558Q808.9200654356404 177.06422615011078 813.1786714299191 182.3757092587789Q817.4372774241978 187.68719236744698 817.8302069483593 194.4912590247154Q818.223136472521 201.2953256819838 814.3539954933397 209.50096993786926Q810.5172676247178 217.63787271963713 805.0016580546012 221.69794627333707Q799.4860484844845 225.758019827037 792.678787578612 225.85170433776653Q785.8715266727393 225.94538884849604 778.0738670935624 222.26862157969083ZM782.6081415612068 212.65236736713257Q785.5849696161584 214.05600699081344 788.2765050878893 214.22457428315687Q790.96804055962 214.39314157550032 793.312975174869 213.40823676331757Q795.6579097901181 212.42333195113483 797.5968586901276 210.3217982349288Q799.5358075901373 208.22026451872273 800.9958219695861 205.12387731786933L802.4487459811002 202.04252731447912Q803.9235583382703 198.91475667695582 804.3187253263249 196.0661154751319Q804.7138923143794 193.217474273308 803.9818739638894 190.7817187491637Q803.2498556133993 188.34596322501937 801.407407528585 186.37665797128204Q799.5649594437708 184.4073527175447 796.5881313888192 183.00371309386387Q793.6113033338676 181.600073470183 790.9197678621367 181.43150617783954Q788.228232390406 181.2629388854961 785.9019767938807 182.25665126409797Q783.5757211973556 183.25036364269985 781.6450650268202 185.37498806610145Q779.714408856285 187.49961248950305 778.2395964991149 190.62738312702638L776.786672487601 193.70873313041656Q775.3266581081522 196.80512033127 774.9231983906232 199.63067082589833Q774.5197386730943 202.45622132052665 775.2330780048605 204.88316927825184Q775.9464173366267 207.31011723597706 777.788865421441 209.2794224897144Q779.6313135062552 211.24872774345172 782.6081415612068 212.65236736713257Z"/>
<path d="M865.2455179764866 275.4171400383593 900.5092775633213 236.90415499561192 910.5681679206423 246.11440683345788 894.9166816032408 263.2080311520598 925.8108806549501 260.07113744567084 938.2263873201669 271.43918491602386 909.4877698686469 274.0519882476584 903.2428905665669 310.20878785430307 891.3513440262963 299.32049555895605 896.2538803706997 274.5038653390188 884.4992230013754 274.5853610799461 875.3044083338076 284.6273918762053Z"/>
<path d="M921.160836317944 330.5639215447993 963.0373223733525 299.36868676844045 970.2463351932112 309.0460662460541 962.1493884039115 338.7764771715818Q961.9769183066562 339.5848162469654 961.5706321458947 340.9628845914111Q961.1643459851333 342.34095293585693 960.7470202340912 343.70973027585194Q960.3296944830491 345.078507615847 960.0041210383185 345.81959642597684L960.2973769733969 346.07498753782045Q961.5896887726669 345.0607968744157 962.8622881007748 344.1127938647067Q964.1348874288827 343.1647908549977 964.9603323295254 342.54988855788463L984.4108580111567 328.0605229898365L991.9613625202655 338.1963209427538L950.084876464857 369.39155571911266L942.9212658119409 359.7751241146113L951.3421905098675 328.3695193389215Q951.7532609114045 326.84161438419636 952.2729921975013 325.3821140966062Q952.792723483598 323.92261380901607 953.1300114410619 322.9317562818185L952.8367555059835 322.6763651699749Q951.8703719812868 323.4477606515653 950.8654016682663 324.19639760301504Q949.8604313552457 324.9450345544647 949.1727738825865 325.4572942573667L928.7113408270528 340.6997194977166Z"/>
<path d="M976.475011032158 419.2851349409822Q972.777777975105 411.5813722222019 972.8173053707301 404.75798850966885Q972.8568327663553 397.9346047971359 976.8790138038668 392.39130200070673Q980.9011948413782 386.8479992042776 989.0116143651006 382.9556011302074Q997.1905516293841 379.0303196373918 1003.9971511781329 379.37661325628056Q1010.8037507268816 379.7229068751693 1016.1517986980878 383.9606551689148Q1021.499846669294 388.1984034626603 1025.197079726347 395.90216618144063Q1028.9271962021455 403.67444664078215 1028.880162459712 410.4821897069712Q1028.8331287172784 417.2899327731603 1024.8452065500476 422.81679386021665Q1020.8572843828167 428.3436549472731 1012.6783471185331 432.26893644008874Q1004.5679275948108 436.16133451415885 997.7270691757815 435.8314826046428Q990.8862107567521 435.50163069512683 985.5456691323543 431.2795230477253Q980.2051275079565 427.05741540032375 976.475011032158 419.2851349409822ZM986.0599671269222 414.68506899689845Q987.4839732996264 417.65220834010665 989.4658581793885 419.48111797456204Q991.4477430591505 421.3100276090175 993.8884577413153 422.0253371078492Q996.3291724234801 422.74064660668097 999.1593981044578 422.3334741715456Q1001.9896237854354 421.92630173641027 1005.0759331442094 420.44510282075123L1008.1472542472359 418.9710971529428Q1011.2648448986979 417.4748855436671 1013.3686827524339 415.5140745047436Q1015.4725206061698 413.55326346582 1016.4413330032683 411.20163458819445Q1017.4101454003667 408.85000571056895 1017.2231376023269 406.1596885896508Q1017.036129804287 403.4693714687326 1015.6121236315828 400.5022321255244Q1014.1881174588785 397.53509278231616 1012.2062325791164 395.70618314786077Q1010.2243476993544 393.8772735134053 1007.792568379754 393.1805822385103Q1005.3607890601536 392.4838909636152 1002.5224290796405 392.9142103919028Q999.6840690991272 393.3445298201905 996.5664784476653 394.84074142946616L993.4951573446389 396.3147470972746Q990.4088479858648 397.79594601293365 988.3131444316643 399.7336100587049Q986.2174408774639 401.67127410447614 985.2396931178012 404.004284758165Q984.2619453581383 406.33729541185386 984.448953156178 409.027612532772Q984.6359609542179 411.7179296536902 986.0599671269222 414.68506899689845Z"/>
<path d="M1001.2584646231279 478.75706886452616 1048.9349978114726 453.74845312910094 1052.2928668015052 467.63612457242834 1027.1045916331295 480.23829120375296Q1026.4900466338108 480.57895770309176 1025.2910273123791 481.10343583348674Q1024.0920079909474 481.62791396388167 1022.7316695537226 482.23388997525075Q1021.3713311164977 482.8398659866198 1020.2685439743067 483.3053792693272L1020.348143138693 483.6345901603543Q1021.1498841127336 483.5971189601324 1022.1603628667509 483.51257542365886Q1023.1708416207682 483.4280318871854 1024.209547730933 483.37236040594684Q1025.2482538410977 483.3166889247083 1026.198569125457 483.26454072112915Q1027.1488844098162 483.2123925175501 1027.813989642371 483.1722610829065L1055.9024146220254 482.56470407900326L1059.3802797666312 496.948662653879L1034.1558897587986 509.40146341473763Q1033.4610529392294 509.76154349355755 1032.2468140576052 510.3109479738854Q1031.0325751759813 510.8603524542132 1029.7123826488817 511.4566216758418Q1028.392190121782 512.0528908974703 1027.3295488897163 512.5086973904371L1027.4091480541026 512.8379082814643Q1028.2173094881632 512.7988846925865 1029.2190799182126 512.7521438067606Q1030.2208503482623 512.7054029209348 1031.2378403385042 512.6337356851761Q1032.254830328746 512.5620684494173 1033.2100897841801 512.5444218902712Q1034.1653492396142 512.5267753311252 1034.9060597734644 512.5040605444173L1063.0305995925755 512.04586941098L1066.1609302678453 524.9924745513714L1012.317219178403 524.49451433722L1008.7434635098102 509.71396611110697L1035.2816988947154 496.44545247628156Q1036.2318752450813 496.02363442390066 1037.4909819364607 495.4242864675025Q1038.75008862784 494.82493851110434 1040.0374226753665 494.2544626099411Q1041.3247567228932 493.6839867087778 1042.2733806846034 493.25574819637694L1042.2019359213018 492.96026275545506Q1041.177028477914 493.0448970681331 1039.7624690068665 493.1489523990454Q1038.3479095358189 493.25300772995774 1036.9750076445164 493.3078957791276Q1035.602105753214 493.36278382829744 1034.5416281275964 493.3846244067322L1004.8811466982296 493.7399697912705Z"/>
<path d="M1017.3435998452732 585.29144064756Q1017.1606377548641 580.3846122572323 1017.8655526292755 576.0109329230322Q1018.5704675036869 571.637253588832 1020.4185168749898 568.2575780081133Q1022.2665662462925 564.8779024273947 1025.4436065153773 562.8655646003567Q1028.6206467844618 560.8532267733189 1033.3409075601662 560.6772212744305Q1033.6314946856262 560.6663860823897 1033.984639322346 560.6705789822379Q1034.3377839590662 560.6747718820859 1034.608438672977 560.7060113514576L1035.0994542886033 573.8744735037133Q1034.8634727449714 573.8419411675014 1034.5276646933908 573.8371018342334Q1034.1918566418103 573.8322625009654 1033.9293418050145 573.8420509548266Q1031.5469056290096 573.9308854255587 1030.1178117041277 575.2225186861111Q1028.6887177792455 576.5141519466636 1028.1140834568462 578.8394997107366Q1027.5394491344468 581.1648474748097 1027.6520474656195 584.1846024790628Q1027.713180017344 585.8241057209859 1027.9262542680813 587.2595302985476Q1028.1393285188187 588.6949548761094 1028.5457179059385 589.838790184885Q1028.9521072930584 590.9826254936606 1029.5542196952877 591.8108110025659Q1030.156332097517 592.6389965114711 1030.9742574928587 593.047454528692Q1031.7921828882002 593.4559125459128 1032.8488431169974 593.4165126018077Q1034.6385720410592 593.3497785489401 1035.701942320558 591.9825091812683Q1036.7653126000569 590.6152398135964 1037.4621929206976 588.331641382259Q1038.1590732413383 586.0480429509215 1038.7068806811658 583.2029119566997Q1039.254688120993 580.3577809624779 1039.915814555512 577.314987549847Q1040.576940990031 574.2721941372163 1041.6283066964002 571.4082868447911Q1042.679672402769 568.544379552366 1044.3283590602675 566.2252908892121Q1045.977045717766 563.9062022260583 1048.5543912376972 562.4824808994463Q1051.1317367576285 561.0587595728343 1054.8250783554056 560.921045056334Q1058.965833642396 560.7666477179894 1062.0125566096888 562.3981179887843Q1065.0592795769815 564.0295882595792 1067.0626532385313 567.0548571486495Q1069.0660269000812 570.0801260377198 1070.1101145732819 574.0711585170825Q1071.1542022464823 578.0621909964453 1071.324360115567 582.6256252083964Q1071.4908855127924 587.0916407911255 1070.72279770243 591.0568307902565Q1069.9547098920677 595.0220207893876 1068.144565755104 598.1101273898196Q1066.3344216181401 601.1982339902515 1063.447301752596 603.0269901380659Q1060.560181887052 604.8557462858803 1056.4886431739137 605.0488941659761L1055.5772765078466 605.0828765140609L1055.091924616901 592.0663088061499L1055.6037525272632 592.0472241557484Q1057.3522073994313 591.9820290983813 1058.6695795060996 590.9533008866542Q1059.986951612768 589.9245726749272 1060.710361287052 587.9979123089776Q1061.4337709613358 586.071251943028 1061.330222698043 583.2942091307267Q1061.225873825231 580.4956949113757 1060.610586419862 578.5602587397798Q1059.9952990144934 576.6248225681837 1058.9524454687275 575.6601299101233Q1057.9095919229617 574.6954372520627 1056.582147213548 574.7449340022273Q1054.9311109706018 574.806496587735 1053.895812979767 576.1727192172273Q1052.8605149889324 577.5389418467196 1052.1983078385706 579.821247411217Q1051.5361006882088 582.1035529757144 1051.0056298335207 584.9480375365163Q1050.475158978833 587.792522097318 1049.837970011068 590.8344229478685Q1049.2007810433029 593.8763237984189 1048.2080259739669 596.7380456619236Q1047.2152709046306 599.5997675254283 1045.5905217138861 601.9179636265017Q1043.9657725231418 604.2361597275751 1041.5089487180835 605.655387132016Q1039.0521249130252 607.0746145364569 1035.4760045893138 607.2079581951165Q1029.2978760669012 607.4383235593311 1025.3714394846775 604.6500861270856Q1021.4450029024539 601.8618486948401 1019.5155480854112 596.8283390802758Q1017.5860932683686 591.7948294657115 1017.3435998452732 585.29144064756Z"/>
<path d="M1012.2893632655247 677.0844598828311 1057.9936116241288 709.0733131724994 1053.9427602285944 724.8672569363665 998.4755655064638 730.9433462425111 1002.092143903996 716.8425979674184 1011.6515595123299 716.087742865797 1016.8312588702752 695.892511694565 1008.8152161593083 690.6298800094422ZM1025.8640476962182 701.6393083560921 1022.3335974055844 715.4042500700407 1033.9192182987817 714.4970357392519Q1034.8109315538713 714.411903802444 1036.1107270190182 714.3350672306603Q1037.4105224841649 714.2582306588765 1038.8954718455961 714.2109724363189Q1040.3804212070277 714.1637142137613 1041.8621713837083 714.1156354601061Q1043.343921560389 714.0675567064509 1044.492317630551 714.0124387849539L1044.6175085493662 713.5243294621349Q1043.3179463220333 712.8055356587919 1041.663892292788 711.7996715078095Q1040.0098382635426 710.7938073568273 1038.3974213303895 709.7952127071767Q1036.7850043972364 708.7966180575261 1035.5828404894771 708.0107066299856Z"/>
<path d="M957.8697794579253 815.2237045512682Q960.3918188976869 811.0106584984769 963.3674505927784 807.7286481520973Q966.3430822878698 804.4466378057176 969.7350053848978 802.6211649317677Q973.1269284819258 800.7956920578179 976.8873846967663 800.8410512661519Q980.6478409116067 800.8864104744861 984.7006983680499 803.3125568352905Q984.9501990321294 803.4619144514121 985.2439463364774 803.6579788184999Q985.5376936408254 803.8540431855878 985.7475444948941 804.0278030706459L978.9791437547211 815.3343606020345Q978.7990635898963 815.1784222293646 978.5202016301702 814.9912686184709Q978.2413396704441 814.8041150075771 978.0159421205437 814.6691861453356Q975.9703614462471 813.4446481096377 974.0681294921608 813.7481930301246Q972.1658975380745 814.0517379506116 970.4163151150019 815.6877111084702Q968.6667326919293 817.3236842663289 967.1146219162281 819.9164724971429Q966.2719407566633 821.3241644138885 965.6679014227946 822.6436267427691Q965.0638620889259 823.9630890716498 964.7808615536408 825.1435221466667Q964.4978610183556 826.3239552216835 964.5510365838884 827.3465025024042Q964.6042121494211 828.3690497831249 965.067152412699 829.1574191234805Q965.5300926759769 829.9457884638362 966.4373504506428 830.4888966713104Q967.974027460572 831.4087916775965 969.61092129182 830.8424344932Q971.247815123068 830.2760773088035 973.0771101815355 828.7417554501412Q974.9064052400032 827.2074335914789 976.9169073064322 825.1211103168408Q978.9274093728613 823.0347870422028 981.1406782821484 820.8445540295868Q983.3539471914354 818.6543210169709 985.7968088185505 816.826819471444Q988.2396704456655 814.999317925917 990.8861948041072 813.9542108776407Q993.5327191625489 812.9091038293642 996.4695254633873 813.120908211555Q999.4063317642256 813.3327125937459 1002.577467374103 815.2310372208037Q1006.1327563163079 817.3593260692127 1007.797210453672 820.3881556300378Q1009.4616645910361 823.416985190863 1009.4915431617386 827.0453271193451Q1009.5214217324411 830.6736690478272 1008.2205761762933 834.5885458223513Q1006.9197306201455 838.5034225968753 1004.5741908645705 842.4216273850703Q1002.2787228876518 846.2561876805986 999.47286054282 849.1613257350618Q996.6669981979882 852.0664637895252 993.4658261034913 853.6681882956841Q990.2646540089945 855.2699128018431 986.8473283283547 855.2287380689563Q983.4300026477149 855.1875633360696 979.9116079991804 853.1294980568979L979.1291005565544 852.6610686574845L985.8194297301584 841.4849290332002L986.2588896798298 841.7480012406669Q987.7601284254507 842.6466819760568 989.4253593441201 842.5026091176189Q991.0905902627894 842.3585362591809 992.7475064102597 841.1378927392207Q994.40442255773 839.9172492192604 995.8317827467139 837.532855813153Q997.2701789310698 835.1300268679308 997.8096794364424 833.1721119131306Q998.3491799418149 831.2141969583304 998.000970213616 829.8369077992863Q997.652760485417 828.4596186402424 996.5130047718654 827.7773310921712Q995.0954105189114 826.9287221354376 993.4826198018426 827.5095080737142Q991.8698290847738 828.0902940119906 990.07030471555 829.6424373830412Q988.2707803463262 831.1945807540917 986.2751636245191 833.2898147849238Q984.2795469027119 835.3850488157559 982.0868309131113 837.5875853430741Q979.8941149235108 839.7901218703922 977.5015769053259 841.6477484430095Q975.1090388871412 843.5053750156268 972.483067448386 844.5627855786054Q969.8570960096308 845.6201961415841 967.0237707141853 845.470338192828Q964.1904454187398 845.320480244072 961.119957026723 843.4824056711948Q955.8153614887385 840.306936191122 954.0441815008954 835.8287564645518Q952.2730015130523 831.3505767379818 953.4000661811976 826.0790740902788Q954.5271308493428 820.8075714425759 957.8697794579253 815.2237045512682Z"/>
<path d="M929.9687100293161 858.2796883611965 969.4376524223255 892.4701160198009 950.6430420089463 914.1663464124629Q947.1586484895573 918.1886806302311 943.0664270517537 919.6209863702309Q938.9742056139502 921.0532921102306 934.7406349885985 920.0636044248912Q930.5070643632467 919.0739167395518 926.5696618285536 915.6630962725441Q922.5960483285864 912.2209076382231 921.007213505726 908.0936413731572Q919.4183786828656 903.9663751080911 920.3004716585747 899.6614474093337Q921.1825646342837 895.3565197105763 924.6626331855999 891.3391781743097L934.3682988968367 880.1350960064108L921.0387929453485 868.5882573700654ZM942.3054844362225 887.0107747437605 934.6918883934522 895.799801503422Q932.6094648616422 898.2037215489842 932.8470418927024 900.6282109832223Q933.0846189237625 903.0527004174605 935.5409901738658 905.1805604116064Q937.208125063873 906.6247352842532 938.7968656851567 907.0402980649696Q940.3856063064404 907.4558608456862 941.9179743112254 906.8804711940971Q943.4503423160103 906.3050815425081 944.8945171886571 904.6379466525008L952.5081132314274 895.8489198928393Z"/>
<path d="M860.0775572006767 926.7276551280765Q866.76350478496 921.4064149337561 873.4240637322491 919.9241591484235Q880.0846226795384 918.441903363091 886.384949562032 921.1274251680933Q892.6852764445258 923.8129469730956 898.2874077585163 930.8518241817566Q903.9368665108519 937.9501666204239 905.116331596848 944.6627353387631Q906.2957966828441 951.3753040571023 903.3566117755452 957.5333329449991Q900.4174268682461 963.6913618328958 893.7314792839628 969.0126020272163Q886.9860664696732 974.3811696598818 880.3390817387062 975.8526219406117Q873.6920970077393 977.3240742213414 867.4154338444182 974.6682850313423Q861.138770681097 972.0124958413431 855.4893119287614 964.9141534026759Q849.8871806147708 957.8752761940148 848.6840518096022 951.1329748606724Q847.4809230044336 944.3906735273301 850.4065336954104 938.243448144036Q853.3321443863871 932.096222760742 860.0775572006767 926.7276551280765ZM866.6981990213181 935.0462542836585Q864.1230758187831 937.0957542113678 862.7818908750661 939.4354125356492Q861.440705931349 941.7750708599308 861.2873732822488 944.313819555169Q861.1340406331485 946.8525682504072 862.1617689599257 949.5208525837456Q863.1894972867029 952.1891369170839 865.3213118312993 954.8676854854793L867.4427734987579 957.5332260348109Q869.5961950525598 960.2389230358508 871.9765853504961 961.852817603246Q874.3569756484324 963.4667121706411 876.8653798645178 963.8870264906197Q879.3737840806031 964.3073408105982 881.9547491706946 963.5254218049708Q884.5357142607863 962.7435027993434 887.1108374633213 960.6940028716342Q889.6859606658563 958.6445029439251 891.0271456095734 956.3048446196435Q892.3683305532904 953.9651862953621 892.5055048037098 951.4392978146936Q892.6426790541292 948.9134093340252 891.5905730064271 946.2423542889674Q890.5384669587249 943.5712992439095 888.3850454049231 940.8656022428696L886.2635837374645 938.2000616935381Q884.1317691928681 935.5215131251426 881.7757566158567 933.910389269467Q879.4197440388454 932.2992654137913 876.9274982214408 931.866090879243Q874.4352524040364 931.4329163446946 871.8542873139447 932.2148353503219Q869.2733222238531 932.9967543559493 866.6981990213181 935.0462542836585Z"/>
<path d="M802.906086839264 966.1018379212837 822.2171527155753 1002.3409277449873 837.1609556879102 994.3776823918267 842.407064653056 1004.2225151540651 800.4890067874642 1026.5597863379564 795.2428978223185 1016.7149535757181 810.1808713415727 1008.7548146182482 790.8698054652616 972.5157247945448Z"/>
<path d="M698.2827919724327 1022.1378635973815Q701.4573434041831 1021.3989641921031 704.2523580654033 1022.2455389785255Q707.0473727266235 1023.0921137649477 709.0411860633462 1025.2260079056557Q711.0349994000691 1027.3599020463637 711.7738988053474 1030.534453478114Q712.5207354632186 1033.7431059206417 711.6741380046315 1036.5380231748904Q710.8275405460444 1039.3329404291392 708.693633340021 1041.326697633031Q706.5597261339977 1043.3204548369229 703.3851747022474 1044.0593542422012Q700.1765222597197 1044.8061909000724 697.3816180707863 1043.9596495743162Q694.5867138818528 1043.1131082485601 692.5929793501258 1040.9792984495084Q690.5992448183988 1038.8454886504564 689.8524081605276 1035.6368362079288Q689.1135087552493 1032.4622847761784 689.9600274088406 1029.6672831802734Q690.8065460624318 1026.8722815843687 692.9403427961685 1024.8784909198107Q695.0741395299051 1022.8847002552526 698.2827919724327 1022.1378635973815Z"/>
<path d="M598.4758857459002 1019.1728531975463 608.433203185079 1072.081590729989 594.1709213284319 1071.2271795212691 589.4938647739885 1043.4532897730178Q589.3480097071952 1042.7659430486858 589.1974816263629 1041.4659176876598Q589.0469535455306 1040.165892326634 588.8657186729465 1038.6877578567346Q588.6844838003625 1037.209623386835 588.5621687149537 1036.0188752534161L588.2240775859068 1035.9986212118029Q588.0252218451027 1036.7762130550284 587.810274859924 1037.7671786020796Q587.5953278747452 1038.7581441491307 587.3445107701607 1039.7676492145783Q587.0936936655761 1040.777154280026 586.8653813736464 1041.7011088634213Q586.6370690817166 1042.6250634468167 586.4807530693978 1043.272783144457L578.8396536273633 1070.3087285258857L564.0676976341372 1069.4237842440245L559.5440359920839 1041.659083932206Q559.4031207189391 1040.8892795708346 559.2332131772591 1039.5674048521369Q559.0633056355792 1038.245530133439 558.8796008661709 1036.8086244820588Q558.6958960967625 1035.371718830679 558.5711111145293 1034.22219951578L558.2330199854824 1034.2019454741667Q558.0337692387171 1034.9861309649182 557.7852245279764 1035.9577040356094Q557.5366798172356 1036.9292771063003 557.3075145673424 1037.9226995346635Q557.0783493174494 1038.9161219630266 556.8155993575066 1039.8347048317955Q556.5528493975638 1040.7532877005647 556.357748432525 1041.4682028493291L548.5632540781005 1068.494958794325L535.2674231425482 1067.6984448076598L551.504704047329 1016.35894834463L566.6839474256619 1017.2682920115616L571.6030033994124 1046.5280643919014Q571.7282094186313 1047.5600958928062 571.9327391157925 1048.9394925856013Q572.1372688129537 1050.3188892783965 572.3059283907091 1051.7168254895882Q572.4745879684644 1053.1147617007798 572.6063876352094 1054.1471882076457L572.9098435932627 1054.165367358396Q573.1289273446555 1053.1605785525917 573.443499703217 1051.7775202601647Q573.7580720617783 1050.394461967738 574.1074640788015 1049.065628825645Q574.4568560958248 1047.7367956835524 574.7463952070883 1046.7163757168962L583.0888313416056 1018.2510601854354Z"/>
<path d="M488.6184589824663 1002.4741590531273Q496.85377004414795 1004.7538836028874 501.9687818776806 1009.2701632273445Q507.0837937112133 1013.7864428518016 508.6156761850342 1020.4617317802163Q510.1475586588552 1027.1370207086309 507.74749479759305 1035.807047299113Q505.3271549256394 1044.5503192538881 500.5907816273177 1049.4509809098745Q495.854408328996 1054.3516425658609 489.14508625048313 1055.5946731166703Q482.4357641719703 1056.8377036674797 474.2004531102886 1054.5579791177195Q465.8918966843138 1052.257978557268 460.7936046788119 1047.7463273678686Q455.69531267331 1043.2346761784693 454.15329219414326 1036.596009932201Q452.6112717149765 1029.957343685933 455.03161158693024 1021.2140717311578Q457.4316754481923 1012.5440451406757 462.1781867518598 1007.6067608025428Q466.9246980555273 1002.66947646441 473.6173003060094 1001.4218174785428Q480.30990255649147 1000.1741584926757 488.6184589824663 1002.4741590531273ZM485.7820450747096 1012.7204630781092Q482.6101774631715 1011.8424167713634 479.92908090401374 1012.133104521545Q477.247984344856 1012.4237922717264 475.1042284084042 1013.7923924046293Q472.9604724719524 1015.160992537532 471.406327415987 1017.5611175222396Q469.8521823600215 1019.9612425069471 468.93887084327406 1023.2605026905615L468.02999470386544 1026.5437404507365Q467.1074263170024 1029.8764402904126 467.20146594387137 1032.750821996755Q467.2955055707403 1035.625203703097 468.4303022661813 1037.9013830235526Q469.56509896162225 1040.1775623440085 471.71504918406475 1041.8055955650002Q473.86499940650725 1043.433628785992 477.0368670180453 1044.3116750927375Q480.2087346295834 1045.1897213994832 482.88983118874114 1044.8990336493018Q485.57092774789885 1044.6083458991204 487.6947808302349 1043.2342361959295Q489.8186339125709 1041.8601264927388 491.36068757556336 1039.4386532449425Q492.9027412385558 1037.0171799971465 493.82530962541875 1033.6844801574707L494.7341857648274 1030.4012423972956Q495.64749728157483 1027.1019822136811 495.5655490476789 1024.2489487704274Q495.48360081378297 1021.3959153271737 494.36870697245774 1019.1252455770061Q493.2538131311326 1016.8545758268384 491.1038629086901 1015.2265426058467Q488.95391268624763 1013.598509384855 485.7820450747096 1012.7204630781092Z"/>
<path d="M434.83293924236784 985.2191794133112 411.6743340465834 1032.0215486106792 384.49275008482886 1018.5716403611257Q379.27883163827033 1015.9917051805438 376.7853788151921 1012.3228159168048Q374.2919259921139 1008.6539266530657 374.2064785148017 1004.4493134486698Q374.12103103748956 1000.244700244274 376.18366585257195 996.0762196592513Q378.42361659212276 991.5493925636601 382.2399814019536 989.070844193565Q386.05634621178444 986.5922958234698 390.7899748590658 986.4994889111182L390.5480424215475 963.3062621999857L404.144654955548 970.0340964330586L403.7947349581175 990.3777333611803L414.45373096098496 995.6519851661025L422.60901269664197 979.1705734630241ZM409.9738623974068 1004.7055728366774 397.36321830217474 998.4656124911988Q394.84581244623405 997.2199574242634 392.5180584333677 998.1355032798829Q390.1903044205013 999.0510491355025 388.7827214362794 1001.8957031181819Q387.8902499352518 1003.6993428596991 387.9202703023154 1005.3225519779735Q387.95029066937894 1006.9457610962479 388.8251433181214 1008.2809885297761Q389.69999596686375 1009.6162159633043 391.4236779386198 1010.4691230052246L404.0343220338518 1016.7090833507032Z"/>
<path d="M356.73338874185697 940.6211849734899 332.320524585593 973.6393763264014 345.9361354765162 983.7064346801398 339.30405486867323 992.676267354259 301.1116371649805 964.4377034900598 307.74371777282346 955.4678708159405 321.3540173273352 965.5310020940581 345.7668814835992 932.5128107411466Z"/>
<path d="M311.3735035634154 904.0309666999408 273.29394452048837 939.7623246393922 263.9615645080796 929.8166372603749 278.58089119346187 916.0988209894381 264.1157440720878 900.6830502032734 249.49641738670556 914.4008664742103 240.1640373742968 904.455179095193 278.2435964172238 868.7238211557416 287.5759764296326 878.6695085347588 272.25061778511156 893.0498188387869 286.7157649064856 908.4655896249516 302.04112355100665 894.0852793209235Z"/>
<path d="M228.73278130189263 793.2927523885381 192.00256420410904 811.6524922690311 199.57351415710565 826.7988198978599 189.59526011133573 831.78648845027 168.35839565221983 789.3003395648868 178.33664969798974 784.3126710124767 185.90464628646401 799.453090185043 222.6348633842476 781.09335030455Z"/>
<path d="M204.8943799716777 740.1129265264034 154.75287434867388 754.6941531880819 150.94452347422796 741.5981050149016 170.19461642759632 736.0001484891872 164.29168966985327 715.7013326156618 145.04159671648492 721.2992891413763 141.23324584203897 708.2032409681962 191.37475146504278 693.6220143065176 195.1831023394887 706.7180624796978 175.00333723815064 712.5863690904798 180.90626399589368 732.8851849640052 201.08602909723174 727.0168783532231Z"/>
<path d="M185.66571025222052 662.5401606811059 133.70945991905043 667.768048248559 129.39066454792442 624.8466176430269 140.00342266342784 623.7787517779453 142.95678900372064 653.1301559391809 152.69521210835143 652.1502664985683 150.11798213486998 626.5370137381253 160.44307369337554 625.4980931569557 163.02030366685702 651.1113459173988 173.68752310588394 650.038000101891 170.68436909395643 620.1917917396122 181.29712720945983 619.1239258745306Z"/>
<path d="M184.62134018191148 543.9353433526343 133.33314868146658 534.1218745614952 137.439423197798 512.6612271360746Q139.0334945044679 504.3301225917087 142.8988846223652 499.09138885680966Q146.76427474026247 493.8526551219107 153.0032721425736 491.8881968680997Q159.24226954488472 489.92373861428877 168.05048066517682 491.6090993650963Q176.7840459285173 493.28017739767665 181.89446267019184 497.41622950655164Q187.00487941186643 501.55228161542664 188.6632827083896 507.8479364991371Q190.3216860049128 514.1435913828476 188.7276146982429 522.4746959272136ZM176.70814134763526 528.5352696297474 178.2202683480701 520.6324311103725Q178.81269429922378 517.536231766463 178.3768786812807 515.0313767447033Q177.94106306333762 512.5265217229437 176.52809153809937 510.65811244540816Q175.11512001286115 508.78970316787263 172.7118340815819 507.5341958893636Q170.3085481503027 506.2786886108546 167.01436233424403 505.6483799812781L163.86469352151215 505.0457231963162Q160.5364286643159 504.4088938921584 157.8394124955892 504.68851073625126Q155.14239632686247 504.9681275803441 153.1394815885999 506.1829420973653Q151.13656685033735 507.3977566143865 149.8068330001472 509.5647918749524Q148.47709914995704 511.7318271355183 147.88467319880337 514.828026479428L146.37254619836852 522.7308649988029Z"/>
<path d="M202.15658932370764 468.45230545436993 153.45030479306544 449.6246501483821 169.0039657193028 409.388039574493 178.95287490951404 413.23383965365997 168.31665469056426 440.7492556677814 177.44592024711093 444.2782184443889 186.72752719808236 420.2671250974746 196.40676394108579 424.00868195771244 187.12515699011436 448.01977530462676 197.125120840784 451.8853108154354 207.9406458186696 423.9060415777185 217.88955500888082 427.75184165688546Z"/>
<path d="M237.78439299621377 390.235155832433 202.5938270281914 369.07356413001264 193.8674859826411 383.5849905170824 184.30749872995096 377.8361614955314 208.7852885923739 337.13093993100887 218.34527584506404 342.87976895255986 209.62233887247862 357.38553455305384 244.81290484050098 378.5471262554742Z"/>
<path d="M287.1355934703935 323.40072394917667Q281.4752985002277 329.80217325040144 275.1733416532138 332.4185577026256Q268.87138480619996 335.0349421548498 262.2004249044398 333.48431641647073Q255.5294650026796 331.93369067809164 248.7901038245108 325.97460697940164Q241.99380776160476 319.96518026828727 239.66658165381364 313.55942228575896Q237.33935554602255 307.1536643032307 239.1645012779663 300.5787901021047Q240.98964700991007 294.0039159009786 246.64994198007582 287.6024665997538Q252.3605799626659 281.14408241379175 258.65104493550575 278.5406945722193Q264.94150990834567 275.9373067306468 271.5840023677372 277.4627609628137Q278.22649482712876 278.9882151949806 285.0227908900348 284.997641906095Q291.7621520682036 290.956725604785 294.1178456183633 297.38765509352544Q296.473539168523 303.8185845822659 294.6598853107533 310.38046217274024Q292.84623145298355 316.9423397632146 287.1355934703935 323.40072394917667ZM279.1709646604328 316.3582330583042Q281.3510530812768 313.89268566690896 282.26556345408164 311.35566991889607Q283.18007382688654 308.8186541708832 282.8902064571336 306.29185130029623Q282.6003390873807 303.7650484297093 281.1248607429434 301.31577701716725Q279.649382398506 298.8665056046252 277.0848105640277 296.5988577061174L274.5326932355856 294.3422223415775Q271.9421281798039 292.0515906947217 269.3176415175968 290.87558754631004Q266.69315485538976 289.69958439789843 264.1498723040205 289.7212570247474Q261.60658975265125 289.7429296515964 259.2006244817659 290.9611698754137Q256.79465921088047 292.17941009923095 254.61457079003648 294.64495749062627Q252.4344823691925 297.11050488202153 251.5199719963876 299.6475206300344Q250.6054616235827 302.1845363780473 250.9090086253738 304.6958684169173Q251.21255562716487 307.2072004557873 252.7125224564279 309.65496713185166Q254.21248928569096 312.102733807916 256.80305434147266 314.3933654547718L259.35517166991474 316.65000081931174Q261.91974350439307 318.91764871781953 264.51974168177446 320.0951566027088Q267.1197398591558 321.27266448759815 269.6493427784869 321.2664626924661Q272.178945697818 321.26026089733404 274.5849109687034 320.04202067351673Q276.99087623958883 318.8237804496995 279.1709646604328 316.3582330583042Z"/>
<path d="M345.8288818748321 268.6567668813992Q339.8117918008238 273.27231983793985 334.0858574770948 274.70460201290643Q328.3599231533658 276.13688418787297 323.1885414936728 274.1442835695401Q318.0171598339798 272.15168295120725 313.749522640001 266.5881551049998L294.2947209659224 241.22579979305078L305.11623165457917 232.92490101325367L324.41114656657163 258.0788191004168Q327.4620723784936 262.05617470489256 331.3479968165389 262.7203976545183Q335.23392125458423 263.38462060414406 339.325315193796 260.246218958127Q343.4167091330077 257.10781731210983 343.82603724779267 253.148818087663Q344.2353653625776 249.18981886321615 341.18443955065567 245.21246325874034L321.8895246386632 220.05854517157724L332.71103532731996 211.7576463917801L352.1658370013986 237.12000170372917Q356.43347419537736 242.6835295499366 357.0205913542409 248.19259997512285Q357.6077085131044 253.70167040030907 354.74060550891954 258.8608831766713Q351.87350250473463 264.0200959530335 345.8288818748321 268.6567668813992Z"/>
<path d="M391.0862560687824 236.6420198429353 367.5602270122068 190.02326059378618 394.6351751495508 176.35996223828437Q399.8286389201515 173.7390949835718 404.2597298402524 173.94763435226696Q408.69082076035335 174.15617372096216 412.1046893587145 176.6121001577845Q415.51855795707564 179.06802659460686 417.6139175947781 183.22015385142214Q419.88940637048216 187.72922179287485 419.58040969303477 192.26930587116493Q419.2714130155873 196.80938994945504 416.50377496280487 200.65074816005364L435.19741921432944 214.38144228583465L421.65414742709316 221.21601726636538L405.5947371186686 208.72276516719182L394.97755732591435 214.08069584416032L403.2622270396392 230.4974494711353ZM390.4266132122522 205.06262622089562 402.9877846045198 198.72366551240128Q405.49531444848117 197.45824745067236 406.1606011763047 195.04701197317553Q406.82588790412825 192.6357764956787 405.3959728506787 189.80228234912335Q404.4893418041266 188.00571845024456 403.17318431685294 187.05522461397766Q401.85702682957924 186.10473077771078 400.26397842228505 186.0027688815181Q398.67093001499086 185.90080698532543 396.9540102042751 186.76724586111868L384.39283881200754 193.10620656961302Z"/>
<path d="M514.022261568528 175.1850855082094Q510.82758418366603 175.83144881982278 508.0583431533803 174.90403308692643Q505.2891021230945 173.97661735403008 503.35812230111424 171.78570139202998Q501.427142479134 169.59478543002987 500.7807791675206 166.4001080451678Q500.1274726254291 163.1711134566714 501.0549081911409 160.4019704508957Q501.9823437568527 157.63282744512 504.17327114793284 155.70190411184046Q506.36419853901305 153.7709807785609 509.5588759238751 153.12461746694754Q512.7878705123716 152.47131092485603 515.5570020890672 153.3986900018671Q518.3261336657628 154.32606907887816 520.2570371662268 156.5168984454483Q522.187940666691 158.70772781201845 522.8412472087825 161.93672240051484Q523.4876105203958 165.1313997853769 522.5602512762002 167.90062938658258Q521.6328920320046 170.66985898778825 519.4420740945145 172.60081897695306Q517.2512561570245 174.5317789661179 514.022261568528 175.1850855082094Z"/>
<path fill-rule="evenodd" d="M600.0,348.0 L638.3,457.0 L726.0,381.8 L704.7,495.3 L818.2,474.0 L743.0,561.7 L852.0,600.0 L743.0,638.3 L818.2,726.0 L704.7,704.7 L726.0,818.2 L638.3,743.0 L600.0,852.0 L561.7,743.0 L474.0,818.2 L495.3,704.7 L381.8,726.0 L457.0,638.3 L348.0,600.0 L457.0,561.7 L381.8,474.0 L495.3,495.3 L474.0,381.8 L561.7,457.0 Z M600.0,636.8 L665.1,701.8 L701.8,665.1 L636.8,600.0 L701.8,534.9 L665.1,498.2 L600.0,563.2 L534.9,498.2 L498.2,534.9 L563.2,600.0 L498.2,665.1 L534.9,701.8 Z"/>
</g>
</svg>
