<svg xmlns="http://www.w3.org/2000/svg" viewBox="0 0 2253 270" width="2253" height="270">
<g fill="#221A12">
<path d="M197.8 94.39999999999999Q197.8 99.6 196.4 104.0Q190.6 124.2 163.0 129.6Q172.6 132.4 178.2 138.9Q183.8 145.4 183.8 155.0Q183.8 159.4 182.20000000000002 165.4Q177.8 181.0 164.5 188.5Q151.2 196.0 126.80000000000001 196.0H43.6Q39.4 196.0 37.099999999999994 194.6Q34.8 193.2 34.8 190.8Q34.8 189.6 35.4 188.2Q36.2 186.0 38.0 184.8Q39.8 183.6 40.2 183.4Q43.4 181.4 45.4 179.3Q47.4 177.2 48.8 172.4L73.2 86.19999999999999Q74.0 83.6 74.0 81.19999999999999Q74.0 79.0 73.3 77.5Q72.6 76.0 71.4 74.0Q69.6 71.39999999999999 69.6 69.8Q69.6 69.19999999999999 70.0 67.6Q70.8 65.0 73.5 63.89999999999999Q76.2 62.79999999999998 81.80000000000001 62.79999999999998H153.4Q167.0 62.79999999999998 177.10000000000002 66.89999999999999Q187.20000000000002 71.0 192.5 78.1Q197.8 85.19999999999999 197.8 94.39999999999999ZM145.8 91.19999999999999Q145.8 80.8 134.0 80.8H125.0L114.4 118.19999999999999H123.2Q131.60000000000002 118.19999999999999 136.5 114.1Q141.4 110.0 144.4 99.39999999999999Q145.8 95.0 145.8 91.19999999999999ZM131.2 149.4Q131.2 138.6 118.80000000000001 138.6H108.8L97.4 178.0H107.60000000000001Q116.2 178.0 121.4 173.7Q126.60000000000001 169.4 129.8 158.2Q131.2 153.4 131.2 149.4Z"/>
<path d="M310.8 129.6Q320.40000000000003 130.39999999999998 325.20000000000005 135.2Q330.0 140.0 330.0 147.8Q330.0 150.8 329.0 155.2L326.8 165.0Q326.40000000000003 167.0 326.40000000000003 167.8Q326.40000000000003 170.4 327.6 171.7Q328.8 173.0 331.0 173.0Q335.20000000000005 173.0 337.1 174.2Q339.0 175.4 338.40000000000003 178.6Q337.6 183.2 333.6 187.6Q329.6 192.0 322.3 194.9Q315.0 197.8 304.6 197.8Q291.40000000000003 197.8 283.6 191.9Q275.8 186.0 275.8 175.0Q275.8 170.8 277.0 166.0L280.20000000000005 153.2Q281.0 150.6 281.0 147.8Q281.0 143.2 277.9 141.2Q274.8 139.2 268.0 139.2H260.40000000000003L251.20000000000002 172.4Q250.8 173.6 250.8 175.4Q250.8 178.2 252.20000000000002 180.2Q253.60000000000002 182.2 256.0 184.4Q257.8 185.8 258.8 187.10000000000002Q259.8 188.4 259.8 189.8Q259.8 193.2 256.6 194.6Q253.40000000000003 196.0 247.20000000000002 196.0H197.00000000000003Q191.8 196.0 189.20000000000002 194.1Q186.60000000000002 192.2 187.4 188.8Q187.8 187.0 188.90000000000003 185.9Q190.00000000000003 184.8 192.20000000000002 183.4Q195.60000000000002 181.4 197.60000000000002 179.2Q199.60000000000002 177.0 200.8 172.4L225.20000000000002 86.19999999999999Q226.00000000000003 83.6 226.00000000000003 81.19999999999999Q226.00000000000003 79.0 225.3 77.5Q224.60000000000002 76.0 223.40000000000003 74.0Q221.60000000000002 71.39999999999999 221.60000000000002 69.8Q221.60000000000002 69.19999999999999 222.00000000000003 67.6Q222.8 65.0 225.5 63.89999999999999Q228.20000000000002 62.79999999999998 233.8 62.79999999999998H300.8Q314.6 62.79999999999998 324.90000000000003 66.99999999999999Q335.20000000000005 71.19999999999999 340.70000000000005 78.5Q346.20000000000005 85.8 346.20000000000005 95.0Q346.20000000000005 99.19999999999999 345.0 103.39999999999999Q341.8 115.0 333.0 121.5Q324.20000000000005 128.0 310.8 129.6ZM294.8 94.39999999999999Q294.8 83.8 283.20000000000005 83.8H274.8L266.0 119.19999999999999H274.40000000000003Q282.20000000000005 119.19999999999999 286.70000000000005 115.39999999999999Q291.20000000000005 111.6 293.8 101.39999999999999Q294.8 96.8 294.8 94.39999999999999Z"/>
<path d="M491.0 106.0Q491.0 116.6 487.8 128.8Q481.8 151.2 469.20000000000005 166.8Q456.6 182.4 439.20000000000005 190.4Q421.8 198.4 401.4 198.4Q376.4 198.4 362.2 186.5Q348.0 174.6 348.0 152.2Q348.0 142.0 351.4 128.8Q357.2 106.6 369.7 91.1Q382.2 75.6 399.5 67.69999999999999Q416.8 59.79999999999998 437.4 59.79999999999998Q462.6 59.79999999999998 476.8 71.69999999999999Q491.0 83.6 491.0 106.0ZM403.4 130.2Q395.4 158.2 395.4 168.8Q395.4 175.0 397.6 177.8Q399.8 180.6 404.6 180.6Q410.6 180.6 415.4 175.7Q420.2 170.8 424.79999999999995 160.0Q429.4 149.2 435.0 130.2Q442.8 102.6 442.8 91.39999999999999Q442.8 85.0 440.6 82.19999999999999Q438.4 79.39999999999999 433.8 79.39999999999999Q427.8 79.39999999999999 423.0 84.19999999999999Q418.2 89.0 413.5 99.9Q408.8 110.8 403.4 130.2Z"/>
<path d="M712.6 82.0Q712.6 92.39999999999999 706.4000000000001 98.79999999999998Q700.2 105.19999999999999 691.6 105.19999999999999Q686.0 105.19999999999999 682.0 103.19999999999999Q678.0 101.19999999999999 674.4000000000001 96.8L657.2 111.19999999999999L676.6 168.6Q678.4000000000001 173.6 680.5 176.6Q682.6 179.6 685.6 182.6Q687.8000000000001 184.8 688.7 186.10000000000002Q689.6 187.4 689.6 189.2Q689.6 192.4 686.7 194.2Q683.8000000000001 196.0 676.6 196.0H650.4000000000001Q640.6 196.0 635.9000000000001 191.7Q631.2 187.4 628.2 177.4L618.2 143.8L612.4 148.6L605.8000000000001 172.4Q605.0 175.0 605.0 177.4Q605.0 179.8 605.7 181.4Q606.4 183.0 607.8000000000001 184.8Q609.6 187.4 609.6 189.0Q609.6 189.4 609.2 191.0Q608.4 193.8 605.6 194.9Q602.8000000000001 196.0 597.2 196.0H550.2Q546.0 196.0 543.7 194.6Q541.4 193.2 541.4 190.8Q541.4 189.6 542.0 188.2Q542.8000000000001 186.0 544.6 184.8Q546.4 183.6 546.8000000000001 183.4Q550.0 181.4 552.0 179.3Q554.0 177.2 555.4 172.4L579.8000000000001 86.19999999999999Q580.6 83.6 580.6 81.19999999999999Q580.6 79.0 579.9000000000001 77.5Q579.2 76.0 578.0 74.0Q576.2 71.39999999999999 576.2 69.8Q576.2 69.19999999999999 576.6 67.6Q577.4 65.0 580.1 63.89999999999999Q582.8000000000001 62.79999999999998 588.4 62.79999999999998H635.4000000000001Q639.6 62.79999999999998 641.9000000000001 64.1Q644.2 65.4 644.2 67.79999999999998Q644.2 68.8 643.6 70.39999999999999Q643.0 71.8 641.9000000000001 72.9Q640.8000000000001 74.0 639.9000000000001 74.5Q639.0 75.0 638.6 75.39999999999999Q635.4000000000001 77.19999999999999 633.4000000000001 79.39999999999999Q631.4000000000001 81.6 630.0 86.19999999999999L621.6 116.0L674.6 70.19999999999999Q679.8000000000001 65.79999999999998 684.0 63.89999999999999Q688.2 62.0 693.0 62.0Q701.4000000000001 62.0 707.0 67.4Q712.6 72.8 712.6 82.0Z"/>
<path d="M866.0 68.0Q866.0 69.39999999999999 865.8 70.0Q865.2 72.0 864.0 73.1Q862.8 74.19999999999999 860.6 75.6Q857.6 77.39999999999999 855.6 79.6Q853.6 81.8 852.2 86.39999999999999L827.4 175.2Q824.0 187.2 818.9 192.0Q813.8 196.8 804.8 196.8Q796.8 196.8 791.5 192.10000000000002Q786.2 187.4 781.6 177.6L751.4 114.0L734.6 172.4Q734.0 175.0 734.0 177.0Q734.0 179.6 734.9 181.3Q735.8 183.0 737.4 184.8Q739.6 187.4 739.6 189.2Q739.6 190.4 739.4 191.0Q738.6 193.8 735.8 194.9Q733.0 196.0 727.4 196.0H705.6Q697.4 196.0 697.4 190.8Q697.4 189.4 697.6 188.8Q698.2 186.8 699.4000000000001 185.7Q700.6 184.6 702.8 183.2Q705.8 181.4 707.8 179.2Q709.8 177.0 711.2 172.4L736.6 82.6L733.4 76.0Q731.4 72.0 731.4 69.0Q731.4 62.79999999999998 739.4 62.79999999999998H769.0Q775.4 62.79999999999998 778.7 65.69999999999999Q782.0 68.6 785.8 76.0L815.0 134.6L828.8 86.39999999999999Q829.4 83.6 829.4 81.8Q829.4 79.19999999999999 828.5 77.5Q827.6 75.8 826.0 74.0Q823.8 71.39999999999999 823.8 69.6Q823.8 68.39999999999999 824.0 67.79999999999998Q824.8 65.0 827.5999999999999 63.89999999999999Q830.4 62.79999999999998 836.0 62.79999999999998H857.8Q866.0 62.79999999999998 866.0 68.0Z"/>
<path d="M998.4 106.0Q998.4 116.6 995.2 128.8Q989.2 151.2 976.6 166.8Q964.0 182.4 946.6 190.4Q929.2 198.4 908.8 198.4Q883.8 198.4 869.5999999999999 186.5Q855.4 174.6 855.4 152.2Q855.4 142.0 858.8 128.8Q864.6 106.6 877.1 91.1Q889.6 75.6 906.9000000000001 67.69999999999999Q924.2 59.79999999999998 944.8 59.79999999999998Q970.0 59.79999999999998 984.2 71.69999999999999Q998.4 83.6 998.4 106.0ZM910.8 130.2Q902.8 158.2 902.8 168.8Q902.8 175.0 905.0 177.8Q907.1999999999999 180.6 912.0 180.6Q918.0 180.6 922.8 175.7Q927.6 170.8 932.2 160.0Q936.8 149.2 942.4 130.2Q950.2 102.6 950.2 91.39999999999999Q950.2 85.0 948.0 82.19999999999999Q945.8 79.39999999999999 941.2 79.39999999999999Q935.2 79.39999999999999 930.4000000000001 84.19999999999999Q925.6 89.0 920.9 99.9Q916.1999999999999 110.8 910.8 130.2Z"/>
<path d="M1207.2 105.19999999999999Q1202.6 105.19999999999999 1198.5 102.89999999999999Q1194.4 100.6 1193.2 97.6L1144.6 178.8Q1139.0 188.2 1134.5 192.1Q1130.0 196.0 1124.2 196.0Q1110.8 196.0 1109.0 178.8L1102.6 120.0L1062.2 178.8Q1055.2 189.0 1050.9 192.5Q1046.6 196.0 1041.0 196.0Q1028.8 196.0 1026.2 176.8L1013.4 86.39999999999999Q1012.8 82.39999999999999 1011.0999999999999 80.0Q1009.4 77.6 1006.8 75.39999999999999Q1005.0 73.8 1004.2 72.69999999999999Q1003.4 71.6 1003.4 70.19999999999999Q1002.4 62.79999999999998 1012.2 62.79999999999998H1062.0Q1066.6 62.79999999999998 1068.9 64.69999999999999Q1071.2 66.6 1071.0 69.8Q1071.0 71.39999999999999 1070.1 72.89999999999999Q1069.2 74.39999999999999 1068.2 75.6Q1066.0 78.0 1065.0 80.19999999999999Q1064.0 82.39999999999999 1064.4 86.0L1069.6 134.2L1099.6 91.19999999999999L1099.0 86.39999999999999Q1098.6 82.6 1097.0 80.19999999999999Q1095.4 77.8 1092.6 75.6Q1090.6 73.8 1089.8 72.69999999999999Q1089.0 71.6 1089.0 70.19999999999999Q1088.0 62.79999999999998 1097.8 62.79999999999998H1147.8Q1152.4 62.79999999999998 1154.8000000000002 64.69999999999999Q1157.2 66.6 1157.0 69.8Q1157.0 72.39999999999999 1154.2 75.6Q1152.2 78.0 1151.2 80.19999999999999Q1150.2 82.39999999999999 1150.4 86.0L1152.8 129.6L1179.8 82.39999999999999Q1186.4 71.0 1192.6 66.5Q1198.8 62.0 1208.8 62.0Q1217.8 62.0 1223.4 67.4Q1229.0 72.8 1229.0 82.0Q1229.0 89.19999999999999 1225.6 94.5Q1222.2 99.8 1217.1 102.5Q1212.0 105.19999999999999 1207.2 105.19999999999999Z"/>
<path d="M1323.6 72.8 1328.2 69.0Q1333.0 65.19999999999999 1336.1 63.8Q1339.2 62.400000000000006 1343.2 62.400000000000006Q1348.0 62.400000000000006 1350.8 64.5Q1353.6 66.6 1353.6 70.6Q1353.6 72.19999999999999 1353.0 74.0L1344.6 101.6Q1343.2 106.39999999999999 1341.1 108.39999999999999Q1339.0 110.39999999999999 1334.8 110.39999999999999Q1330.3999999999999 110.39999999999999 1327.1 107.69999999999999Q1323.8 105.0 1316.8 96.6Q1309.8 88.6 1304.1 85.3Q1298.3999999999999 82.0 1292.3999999999999 82.0Q1288.0 82.0 1285.0 84.9Q1282.0 87.8 1282.0 92.0Q1282.0 96.8 1286.8 100.9Q1291.6 105.0 1301.8 111.19999999999999Q1312.2 117.39999999999999 1319.0 122.39999999999999Q1325.8 127.39999999999999 1330.6 134.79999999999998Q1335.3999999999999 142.2 1335.3999999999999 151.8Q1335.3999999999999 158.0 1333.3999999999999 164.2Q1328.6 180.2 1314.8 188.5Q1301.0 196.8 1282.6 196.8Q1268.8 196.8 1259.4 193.60000000000002Q1250.0 190.4 1240.2 182.8L1233.0 188.8Q1228.0 193.0 1224.8 194.5Q1221.6 196.0 1217.6 196.0Q1213.0 196.0 1210.3 193.8Q1207.6 191.6 1207.6 187.8Q1207.6 185.8 1208.3999999999999 183.6L1218.2 153.8Q1219.8 148.6 1222.6 146.39999999999998Q1225.3999999999999 144.2 1229.8 144.2Q1234.3999999999999 144.2 1238.1 147.39999999999998Q1241.8 150.6 1247.8 159.0Q1254.2 168.2 1259.7 171.8Q1265.2 175.4 1272.8 175.4Q1278.2 175.4 1281.1 173.7Q1284.0 172.0 1285.2 168.2Q1285.6 167.2 1285.6 165.2Q1285.6 160.4 1281.0 156.4Q1276.3999999999999 152.4 1266.8 146.8Q1256.6 140.6 1250.1999999999998 135.7Q1243.8 130.8 1239.1 123.4Q1234.3999999999999 116.0 1234.3999999999999 106.0Q1234.3999999999999 99.0 1236.6 92.19999999999999Q1240.8 78.39999999999999 1253.8 70.0Q1266.8 61.599999999999994 1283.6 61.599999999999994Q1294.8 61.599999999999994 1304.3 64.3Q1313.8 67.0 1323.6 72.8Z"/>
<path d="M1528.8 172.4Q1528.0 175.0 1528.0 177.6Q1528.0 179.8 1528.6 181.3Q1529.1999999999998 182.8 1529.8999999999999 183.7Q1530.6 184.6 1530.8 185.0Q1532.8 187.0 1532.8 189.0Q1532.8 189.4 1532.3999999999999 191.0Q1531.6 193.8 1528.8999999999999 194.9Q1526.1999999999998 196.0 1520.6 196.0H1473.1999999999998Q1469.0 196.0 1466.6999999999998 194.6Q1464.3999999999999 193.2 1464.3999999999999 190.8Q1464.3999999999999 189.6 1465.0 188.2Q1465.6 186.6 1466.6999999999998 185.7Q1467.8 184.8 1469.8 183.6Q1473.0 181.8 1475.0 179.60000000000002Q1477.0 177.4 1478.3999999999999 172.4L1483.6 155.2H1452.3999999999999L1447.0 166.6Q1443.6 174.0 1443.6 178.2Q1443.6 180.6 1444.3999999999999 182.1Q1445.1999999999998 183.6 1446.8 185.2Q1448.1999999999998 186.8 1448.6999999999998 187.9Q1449.1999999999998 189.0 1448.8 190.8Q1448.0 193.8 1445.5 194.9Q1443.0 196.0 1437.6 196.0H1407.8Q1403.1999999999998 196.0 1400.7999999999997 194.3Q1398.3999999999999 192.6 1398.3999999999999 189.8Q1398.3999999999999 186.6 1400.6999999999998 184.7Q1403.0 182.8 1407.6 180.6Q1413.6 177.6 1417.1999999999998 174.7Q1420.8 171.8 1423.3999999999999 166.6L1459.0 92.8Q1467.1999999999998 75.6 1478.2999999999997 67.89999999999999Q1489.3999999999999 60.19999999999999 1507.6 60.19999999999999Q1528.0 60.19999999999999 1539.1999999999998 68.5Q1550.3999999999999 76.8 1550.3999999999999 91.6Q1550.3999999999999 97.8 1548.3999999999999 104.39999999999999ZM1489.6 135.2 1500.1999999999998 100.0Q1501.0 97.6 1501.0 95.0Q1501.0 91.19999999999999 1498.9 89.29999999999998Q1496.8 87.39999999999999 1493.0 87.39999999999999Q1488.1999999999998 87.39999999999999 1484.7999999999997 90.19999999999999Q1481.3999999999999 93.0 1478.0 100.19999999999999L1461.6 135.2Z"/>
<path d="M1720.9999999999998 72.8 1725.6 69.0Q1730.3999999999999 65.19999999999999 1733.5 63.8Q1736.6 62.400000000000006 1740.6 62.400000000000006Q1745.3999999999999 62.400000000000006 1748.1999999999998 64.5Q1750.9999999999998 66.6 1750.9999999999998 70.6Q1750.9999999999998 72.19999999999999 1750.3999999999999 74.0L1741.9999999999998 101.6Q1740.6 106.39999999999999 1738.5 108.39999999999999Q1736.3999999999999 110.39999999999999 1732.1999999999998 110.39999999999999Q1727.7999999999997 110.39999999999999 1724.4999999999998 107.69999999999999Q1721.1999999999998 105.0 1714.1999999999998 96.6Q1707.1999999999998 88.6 1701.4999999999998 85.3Q1695.7999999999997 82.0 1689.7999999999997 82.0Q1685.3999999999999 82.0 1682.3999999999999 84.9Q1679.3999999999999 87.8 1679.3999999999999 92.0Q1679.3999999999999 96.8 1684.1999999999998 100.9Q1688.9999999999998 105.0 1699.1999999999998 111.19999999999999Q1709.6 117.39999999999999 1716.3999999999999 122.39999999999999Q1723.1999999999998 127.39999999999999 1727.9999999999998 134.79999999999998Q1732.7999999999997 142.2 1732.7999999999997 151.8Q1732.7999999999997 158.0 1730.7999999999997 164.2Q1725.9999999999998 180.2 1712.1999999999998 188.5Q1698.3999999999999 196.8 1679.9999999999998 196.8Q1666.1999999999998 196.8 1656.7999999999997 193.60000000000002Q1647.3999999999999 190.4 1637.6 182.8L1630.3999999999999 188.8Q1625.3999999999999 193.0 1622.1999999999998 194.5Q1618.9999999999998 196.0 1614.9999999999998 196.0Q1610.3999999999999 196.0 1607.6999999999998 193.8Q1604.9999999999998 191.6 1604.9999999999998 187.8Q1604.9999999999998 185.8 1605.7999999999997 183.6L1615.6 153.8Q1617.1999999999998 148.6 1619.9999999999998 146.39999999999998Q1622.7999999999997 144.2 1627.1999999999998 144.2Q1631.7999999999997 144.2 1635.4999999999998 147.39999999999998Q1639.1999999999998 150.6 1645.1999999999998 159.0Q1651.6 168.2 1657.1 171.8Q1662.6 175.4 1670.1999999999998 175.4Q1675.6 175.4 1678.5 173.7Q1681.3999999999999 172.0 1682.6 168.2Q1682.9999999999998 167.2 1682.9999999999998 165.2Q1682.9999999999998 160.4 1678.3999999999996 156.4Q1673.7999999999997 152.4 1664.1999999999998 146.8Q1653.9999999999998 140.6 1647.6 135.7Q1641.1999999999998 130.8 1636.4999999999998 123.4Q1631.7999999999997 116.0 1631.7999999999997 106.0Q1631.7999999999997 99.0 1633.9999999999998 92.19999999999999Q1638.1999999999998 78.39999999999999 1651.1999999999998 70.0Q1664.1999999999998 61.599999999999994 1680.9999999999998 61.599999999999994Q1692.1999999999998 61.599999999999994 1701.6999999999998 64.3Q1711.1999999999998 67.0 1720.9999999999998 72.8Z"/>
<path d="M1893.9999999999998 96.39999999999999Q1893.9999999999998 102.39999999999999 1892.1999999999998 109.0Q1886.5999999999997 129.0 1870.0999999999997 138.6Q1853.5999999999997 148.2 1828.3999999999999 148.2H1807.7999999999997L1800.9999999999998 172.4Q1800.5999999999997 173.6 1800.5999999999997 175.6Q1800.5999999999997 178.4 1801.8999999999996 180.2Q1803.1999999999998 182.0 1805.7999999999997 184.4Q1807.9999999999998 186.4 1808.7999999999997 187.4Q1809.5999999999997 188.4 1809.5999999999997 189.8Q1809.5999999999997 193.2 1806.3999999999996 194.6Q1803.1999999999998 196.0 1796.9999999999998 196.0H1746.7999999999997Q1741.5999999999997 196.0 1738.9999999999998 194.1Q1736.3999999999999 192.2 1737.1999999999998 188.8Q1737.5999999999997 187.0 1738.6999999999998 185.9Q1739.7999999999997 184.8 1741.9999999999998 183.4Q1745.3999999999999 181.4 1747.3999999999999 179.2Q1749.3999999999999 177.0 1750.5999999999997 172.4L1774.9999999999998 86.19999999999999Q1775.7999999999997 83.6 1775.7999999999997 81.19999999999999Q1775.7999999999997 79.0 1775.1 77.5Q1774.3999999999999 76.0 1773.1999999999998 74.0Q1771.3999999999999 71.39999999999999 1771.3999999999999 69.8Q1771.3999999999999 69.19999999999999 1771.7999999999997 67.6Q1772.5999999999997 65.0 1775.2999999999997 63.89999999999999Q1777.9999999999998 62.79999999999998 1783.5999999999997 62.79999999999998H1849.7999999999997Q1870.9999999999998 62.79999999999998 1882.4999999999998 71.99999999999999Q1893.9999999999998 81.19999999999999 1893.9999999999998 96.39999999999999ZM1846.7999999999997 92.39999999999999Q1846.7999999999997 80.8 1835.9999999999998 80.8H1826.9999999999998L1812.7999999999997 130.2H1821.5999999999997Q1829.9999999999998 130.2 1835.2999999999997 124.89999999999999Q1840.5999999999997 119.6 1844.5999999999997 105.39999999999999Q1846.7999999999997 98.0 1846.7999999999997 92.39999999999999Z"/>
<path d="M1969.8,44.0 L1983.1,80.2 L2012.8,55.5 L2006.2,93.5 L2044.2,87.0 L2019.6,116.6 L2055.8,130.0 L2019.6,143.4 L2044.2,173.0 L2006.2,166.5 L2012.8,204.5 L1983.1,179.8 L1969.8,216.0 L1956.4,179.8 L1926.8,204.5 L1933.3,166.5 L1895.3,173.0 L1919.9,143.4 L1883.8,130.0 L1919.9,116.6 L1895.3,87.0 L1933.3,93.5 L1926.8,55.5 L1956.4,80.2 Z"/>
<path d="M2232.1199999999994 71.8Q2232.1199999999994 74.6 2230.9199999999996 78.8L2226.1199999999994 95.0Q2223.9199999999996 102.39999999999999 2220.7199999999993 105.39999999999999Q2217.5199999999995 108.39999999999999 2211.5199999999995 108.39999999999999Q2206.5199999999995 108.39999999999999 2203.8199999999997 105.79999999999998Q2201.1199999999994 103.19999999999999 2198.72 97.6L2195.3199999999997 89.39999999999999Q2193.72 85.6 2191.9199999999996 84.19999999999999Q2190.1199999999994 82.8 2186.3199999999997 82.8H2181.72L2156.3199999999997 172.2Q2155.72 174.8 2155.72 176.8Q2155.72 179.2 2156.4199999999996 180.8Q2157.1199999999994 182.4 2158.5199999999995 184.2Q2160.3199999999997 187.0 2160.3199999999997 188.8Q2160.3199999999997 189.2 2159.9199999999996 190.8Q2158.9199999999996 193.4 2156.0199999999995 194.60000000000002Q2153.1199999999994 195.8 2147.72 195.8H2100.72Q2096.5199999999995 195.8 2094.2199999999993 194.4Q2091.9199999999996 193.0 2091.9199999999996 190.4Q2091.9199999999996 189.2 2092.5199999999995 188.0Q2093.3199999999997 186.2 2094.4199999999996 185.3Q2095.5199999999995 184.4 2097.72 183.0Q2100.72 181.2 2102.72 179.0Q2104.72 176.8 2106.1199999999994 172.2L2131.3199999999997 82.8H2126.72Q2122.3199999999997 82.8 2119.5199999999995 84.19999999999999Q2116.72 85.6 2113.5199999999995 89.39999999999999L2106.9199999999996 97.6Q2102.3199999999997 103.0 2098.0199999999995 105.69999999999999Q2093.72 108.39999999999999 2088.72 108.39999999999999Q2084.1199999999994 108.39999999999999 2081.5199999999995 106.0Q2078.9199999999996 103.6 2078.9199999999996 99.39999999999999Q2078.9199999999996 97.39999999999999 2079.5199999999995 95.0L2084.72 76.8Q2086.3199999999997 71.19999999999999 2088.3199999999997 68.3Q2090.3199999999997 65.4 2094.0199999999995 64.1Q2097.72 62.79999999999998 2104.5199999999995 62.79999999999998H2221.1199999999994Q2232.1199999999994 62.79999999999998 2232.1199999999994 71.8Z"/>
</g>
</svg>
