<svg xmlns="http://www.w3.org/2000/svg" viewBox="0 0 886 686" width="886" height="686">
<g fill="#F2E9CE">
<path d="M377.56000000000006 94.39999999999999Q377.56000000000006 99.6 376.1600000000001 104.0Q370.36 124.2 342.76000000000005 129.6Q352.36 132.4 357.96000000000004 138.9Q363.56000000000006 145.4 363.56000000000006 155.0Q363.56000000000006 159.4 361.96000000000004 165.4Q357.56000000000006 181.0 344.26000000000005 188.5Q330.96000000000004 196.0 306.56000000000006 196.0H223.36000000000004Q219.16000000000005 196.0 216.86000000000007 194.6Q214.56000000000006 193.2 214.56000000000006 190.8Q214.56000000000006 189.6 215.16000000000005 188.2Q215.96000000000004 186.0 217.76000000000005 184.8Q219.56000000000006 183.6 219.96000000000004 183.4Q223.16000000000005 181.4 225.16000000000005 179.3Q227.16000000000005 177.2 228.56000000000006 172.4L252.96000000000004 86.19999999999999Q253.76000000000005 83.6 253.76000000000005 81.19999999999999Q253.76000000000005 79.0 253.06000000000006 77.5Q252.36000000000004 76.0 251.16000000000005 74.0Q249.36000000000004 71.39999999999999 249.36000000000004 69.8Q249.36000000000004 69.19999999999999 249.76000000000005 67.6Q250.56000000000006 65.0 253.26000000000005 63.89999999999999Q255.96000000000004 62.79999999999998 261.56000000000006 62.79999999999998H333.1600000000001Q346.76000000000005 62.79999999999998 356.86 66.89999999999999Q366.96000000000004 71.0 372.26000000000005 78.1Q377.56000000000006 85.19999999999999 377.56000000000006 94.39999999999999ZM325.56000000000006 91.19999999999999Q325.56000000000006 80.8 313.76000000000005 80.8H304.76000000000005L294.1600000000001 118.19999999999999H302.96000000000004Q311.36000000000007 118.19999999999999 316.2600000000001 114.1Q321.1600000000001 110.0 324.1600000000001 99.39999999999999Q325.56000000000006 95.0 325.56000000000006 91.19999999999999ZM310.96000000000004 149.4Q310.96000000000004 138.6 298.56000000000006 138.6H288.56000000000006L277.1600000000001 178.0H287.36000000000007Q295.96000000000004 178.0 301.1600000000001 173.7Q306.36000000000007 169.4 309.56000000000006 158.2Q310.96000000000004 153.4 310.96000000000004 149.4Z"/>
<path d="M490.56000000000006 129.6Q500.1600000000001 130.39999999999998 504.96000000000004 135.2Q509.76000000000005 140.0 509.76000000000005 147.8Q509.76000000000005 150.8 508.76000000000005 155.2L506.56000000000006 165.0Q506.1600000000001 167.0 506.1600000000001 167.8Q506.1600000000001 170.4 507.36000000000007 171.7Q508.56000000000006 173.0 510.76000000000005 173.0Q514.96 173.0 516.86 174.2Q518.76 175.4 518.1600000000001 178.6Q517.36 183.2 513.36 187.6Q509.36 192.0 502.06000000000006 194.9Q494.76000000000005 197.8 484.36 197.8Q471.16 197.8 463.36 191.9Q455.56000000000006 186.0 455.56000000000006 175.0Q455.56000000000006 170.8 456.76000000000005 166.0L459.96000000000004 153.2Q460.76000000000005 150.6 460.76000000000005 147.8Q460.76000000000005 143.2 457.6600000000001 141.2Q454.56000000000006 139.2 447.76000000000005 139.2H440.16L430.96000000000004 172.4Q430.56000000000006 173.6 430.56000000000006 175.4Q430.56000000000006 178.2 431.96000000000004 180.2Q433.36 182.2 435.76000000000005 184.4Q437.56000000000006 185.8 438.56000000000006 187.10000000000002Q439.56000000000006 188.4 439.56000000000006 189.8Q439.56000000000006 193.2 436.36 194.6Q433.16 196.0 426.96000000000004 196.0H376.76000000000005Q371.56000000000006 196.0 368.96000000000004 194.1Q366.36 192.2 367.16 188.8Q367.56000000000006 187.0 368.6600000000001 185.9Q369.76000000000005 184.8 371.96000000000004 183.4Q375.36 181.4 377.36 179.2Q379.36 177.0 380.56000000000006 172.4L404.96000000000004 86.19999999999999Q405.76000000000005 83.6 405.76000000000005 81.19999999999999Q405.76000000000005 79.0 405.06000000000006 77.5Q404.36 76.0 403.16 74.0Q401.36 71.39999999999999 401.36 69.8Q401.36 69.19999999999999 401.76000000000005 67.6Q402.56000000000006 65.0 405.26000000000005 63.89999999999999Q407.96000000000004 62.79999999999998 413.56000000000006 62.79999999999998H480.56000000000006Q494.36 62.79999999999998 504.66 66.99999999999999Q514.96 71.19999999999999 520.46 78.5Q525.96 85.8 525.96 95.0Q525.96 99.19999999999999 524.76 103.39999999999999Q521.5600000000001 115.0 512.76 121.5Q503.96000000000004 128.0 490.56000000000006 129.6ZM474.56000000000006 94.39999999999999Q474.56000000000006 83.8 462.96000000000004 83.8H454.56000000000006L445.76000000000005 119.19999999999999H454.16Q461.96000000000004 119.19999999999999 466.46000000000004 115.39999999999999Q470.96000000000004 111.6 473.56000000000006 101.39999999999999Q474.56000000000006 96.8 474.56000000000006 94.39999999999999Z"/>
<path d="M670.76 106.0Q670.76 116.6 667.56 128.8Q661.56 151.2 648.96 166.8Q636.36 182.4 618.96 190.4Q601.56 198.4 581.16 198.4Q556.16 198.4 541.96 186.5Q527.76 174.6 527.76 152.2Q527.76 142.0 531.16 128.8Q536.96 106.6 549.46 91.1Q561.96 75.6 579.26 67.69999999999999Q596.56 59.79999999999998 617.16 59.79999999999998Q642.36 59.79999999999998 656.56 71.69999999999999Q670.76 83.6 670.76 106.0ZM583.16 130.2Q575.16 158.2 575.16 168.8Q575.16 175.0 577.3599999999999 177.8Q579.56 180.6 584.36 180.6Q590.36 180.6 595.1600000000001 175.7Q599.96 170.8 604.56 160.0Q609.16 149.2 614.76 130.2Q622.56 102.6 622.56 91.39999999999999Q622.56 85.0 620.3599999999999 82.19999999999999Q618.16 79.39999999999999 613.56 79.39999999999999Q607.56 79.39999999999999 602.76 84.19999999999999Q597.96 89.0 593.26 99.9Q588.56 110.8 583.16 130.2Z"/>
<path d="M209.06000000000006 290.0Q209.06000000000006 300.4 202.86000000000007 306.79999999999995Q196.66000000000008 313.2 188.06000000000006 313.2Q182.46000000000006 313.2 178.46000000000006 311.2Q174.46000000000006 309.2 170.86000000000007 304.8L153.66000000000008 319.2L173.06000000000006 376.6Q174.86000000000007 381.6 176.96000000000006 384.6Q179.06000000000006 387.6 182.06000000000006 390.6Q184.26000000000008 392.8 185.16000000000008 394.1Q186.06000000000006 395.4 186.06000000000006 397.2Q186.06000000000006 400.4 183.16000000000008 402.2Q180.26000000000008 404.0 173.06000000000006 404.0H146.86000000000007Q137.06000000000006 404.0 132.36000000000007 399.7Q127.66000000000007 395.4 124.66000000000007 385.4L114.66000000000007 351.8L108.86000000000006 356.6L102.26000000000006 380.4Q101.46000000000006 383.0 101.46000000000006 385.4Q101.46000000000006 387.8 102.16000000000007 389.4Q102.86000000000007 391.0 104.26000000000006 392.8Q106.06000000000006 395.4 106.06000000000006 397.0Q106.06000000000006 397.4 105.66000000000005 399.0Q104.86000000000007 401.8 102.06000000000006 402.9Q99.26000000000006 404.0 93.66000000000005 404.0H46.66000000000006Q42.46000000000006 404.0 40.16000000000005 402.6Q37.860000000000056 401.2 37.860000000000056 398.8Q37.860000000000056 397.6 38.46000000000006 396.2Q39.26000000000006 394.0 41.06000000000006 392.8Q42.860000000000056 391.6 43.26000000000006 391.4Q46.46000000000006 389.4 48.46000000000006 387.29999999999995Q50.46000000000006 385.2 51.860000000000056 380.4L76.26000000000006 294.2Q77.06000000000006 291.6 77.06000000000006 289.2Q77.06000000000006 287.0 76.36000000000006 285.5Q75.66000000000005 284.0 74.46000000000006 282.0Q72.66000000000005 279.4 72.66000000000005 277.8Q72.66000000000005 277.2 73.06000000000006 275.6Q73.86000000000006 273.0 76.56000000000006 271.9Q79.26000000000006 270.79999999999995 84.86000000000007 270.79999999999995H131.86000000000007Q136.06000000000006 270.79999999999995 138.36000000000007 272.09999999999997Q140.66000000000008 273.4 140.66000000000008 275.79999999999995Q140.66000000000008 276.8 140.06000000000006 278.4Q139.46000000000006 279.8 138.36000000000007 280.9Q137.26000000000005 282.0 136.36000000000007 282.5Q135.46000000000006 283.0 135.06000000000006 283.4Q131.86000000000007 285.2 129.86000000000007 287.4Q127.86000000000007 289.6 126.46000000000006 294.2L118.06000000000006 324.0L171.06000000000006 278.2Q176.26000000000008 273.79999999999995 180.46000000000006 271.9Q184.66000000000005 270.0 189.46000000000006 270.0Q197.86000000000007 270.0 203.46000000000006 275.4Q209.06000000000006 280.8 209.06000000000006 290.0Z"/>
<path d="M362.46000000000004 276.0Q362.46000000000004 277.4 362.2600000000001 278.0Q361.6600000000001 280.0 360.4600000000001 281.1Q359.2600000000001 282.2 357.06000000000006 283.6Q354.06000000000006 285.4 352.06000000000006 287.6Q350.06000000000006 289.8 348.6600000000001 294.4L323.86000000000007 383.2Q320.46000000000004 395.2 315.36000000000007 400.0Q310.2600000000001 404.8 301.2600000000001 404.8Q293.2600000000001 404.8 287.9600000000001 400.1Q282.6600000000001 395.4 278.06000000000006 385.6L247.86000000000007 322.0L231.06000000000006 380.4Q230.46000000000006 383.0 230.46000000000006 385.0Q230.46000000000006 387.6 231.36000000000007 389.3Q232.26000000000008 391.0 233.86000000000007 392.8Q236.06000000000006 395.4 236.06000000000006 397.2Q236.06000000000006 398.4 235.86000000000007 399.0Q235.06000000000006 401.8 232.26000000000005 402.9Q229.46000000000006 404.0 223.86000000000007 404.0H202.06000000000006Q193.86000000000007 404.0 193.86000000000007 398.8Q193.86000000000007 397.4 194.06000000000006 396.8Q194.66000000000005 394.8 195.86000000000007 393.70000000000005Q197.06000000000006 392.6 199.26000000000008 391.2Q202.26000000000008 389.4 204.26000000000008 387.2Q206.26000000000008 385.0 207.66000000000005 380.4L233.06000000000006 290.6L229.86000000000007 284.0Q227.86000000000007 280.0 227.86000000000007 277.0Q227.86000000000007 270.79999999999995 235.86000000000007 270.79999999999995H265.46000000000004Q271.86000000000007 270.79999999999995 275.1600000000001 273.7Q278.46000000000004 276.6 282.2600000000001 284.0L311.46000000000004 342.6L325.2600000000001 294.4Q325.86000000000007 291.6 325.86000000000007 289.8Q325.86000000000007 287.2 324.96000000000004 285.5Q324.06000000000006 283.8 322.46000000000004 282.0Q320.2600000000001 279.4 320.2600000000001 277.6Q320.2600000000001 276.4 320.46000000000004 275.79999999999995Q321.2600000000001 273.0 324.06000000000006 271.9Q326.86000000000007 270.79999999999995 332.46000000000004 270.79999999999995H354.2600000000001Q362.46000000000004 270.79999999999995 362.46000000000004 276.0Z"/>
<path d="M494.86000000000007 314.0Q494.86000000000007 324.6 491.6600000000001 336.8Q485.6600000000001 359.2 473.06000000000006 374.79999999999995Q460.4600000000001 390.4 443.06000000000006 398.4Q425.6600000000001 406.4 405.2600000000001 406.4Q380.26000000000005 406.4 366.06000000000006 394.5Q351.86000000000007 382.6 351.86000000000007 360.2Q351.86000000000007 350.0 355.26000000000005 336.8Q361.06000000000006 314.6 373.56000000000006 299.1Q386.06000000000006 283.6 403.36000000000007 275.7Q420.6600000000001 267.79999999999995 441.2600000000001 267.79999999999995Q466.4600000000001 267.79999999999995 480.6600000000001 279.7Q494.86000000000007 291.6 494.86000000000007 314.0ZM407.2600000000001 338.2Q399.2600000000001 366.2 399.2600000000001 376.8Q399.2600000000001 383.0 401.4600000000001 385.8Q403.6600000000001 388.6 408.4600000000001 388.6Q414.4600000000001 388.6 419.2600000000001 383.70000000000005Q424.06000000000006 378.8 428.6600000000001 368.0Q433.2600000000001 357.2 438.86000000000007 338.2Q446.6600000000001 310.6 446.6600000000001 299.4Q446.6600000000001 293.0 444.4600000000001 290.2Q442.2600000000001 287.4 437.6600000000001 287.4Q431.6600000000001 287.4 426.86000000000007 292.2Q422.06000000000006 297.0 417.36000000000007 307.9Q412.6600000000001 318.8 407.2600000000001 338.2Z"/>
<path d="M703.6600000000001 313.2Q699.0600000000001 313.2 694.96 310.9Q690.86 308.6 689.6600000000001 305.6L641.0600000000001 386.8Q635.46 396.2 630.96 400.1Q626.46 404.0 620.6600000000001 404.0Q607.26 404.0 605.46 386.8L599.0600000000001 328.0L558.6600000000001 386.8Q551.6600000000001 397.0 547.3600000000001 400.5Q543.0600000000001 404.0 537.46 404.0Q525.26 404.0 522.6600000000001 384.8L509.86 294.4Q509.26000000000005 290.4 507.56000000000006 288.0Q505.86 285.6 503.26000000000005 283.4Q501.46000000000004 281.8 500.66 280.70000000000005Q499.86 279.6 499.86 278.2Q498.86 270.79999999999995 508.66 270.79999999999995H558.46Q563.0600000000001 270.79999999999995 565.3600000000001 272.7Q567.6600000000001 274.6 567.46 277.8Q567.46 279.4 566.5600000000001 280.9Q565.6600000000001 282.4 564.6600000000001 283.6Q562.46 286.0 561.46 288.2Q560.46 290.4 560.86 294.0L566.0600000000001 342.2L596.0600000000001 299.2L595.46 294.4Q595.0600000000001 290.6 593.46 288.20000000000005Q591.86 285.8 589.0600000000001 283.6Q587.0600000000001 281.8 586.26 280.70000000000005Q585.46 279.6 585.46 278.2Q584.46 270.79999999999995 594.26 270.79999999999995H644.26Q648.86 270.79999999999995 651.26 272.7Q653.6600000000001 274.6 653.46 277.8Q653.46 280.4 650.6600000000001 283.6Q648.6600000000001 286.0 647.6600000000001 288.2Q646.6600000000001 290.4 646.86 294.0L649.26 337.6L676.26 290.4Q682.86 279.0 689.06 274.5Q695.26 270.0 705.26 270.0Q714.26 270.0 719.86 275.4Q725.46 280.8 725.46 290.0Q725.46 297.2 722.0600000000001 302.5Q718.6600000000001 307.8 713.5600000000001 310.5Q708.46 313.2 703.6600000000001 313.2Z"/>
<path d="M820.06 280.8 824.66 277.0Q829.46 273.2 832.56 271.79999999999995Q835.66 270.4 839.66 270.4Q844.46 270.4 847.26 272.5Q850.06 274.6 850.06 278.6Q850.06 280.2 849.46 282.0L841.06 309.6Q839.66 314.4 837.56 316.4Q835.46 318.4 831.26 318.4Q826.86 318.4 823.56 315.7Q820.26 313.0 813.26 304.6Q806.26 296.6 800.56 293.3Q794.86 290.0 788.86 290.0Q784.46 290.0 781.46 292.9Q778.46 295.8 778.46 300.0Q778.46 304.8 783.26 308.9Q788.06 313.0 798.26 319.2Q808.66 325.4 815.46 330.4Q822.26 335.4 827.06 342.79999999999995Q831.86 350.2 831.86 359.8Q831.86 366.0 829.86 372.2Q825.06 388.2 811.26 396.5Q797.46 404.8 779.06 404.8Q765.26 404.8 755.86 401.6Q746.46 398.4 736.66 390.8L729.46 396.8Q724.46 401.0 721.26 402.5Q718.06 404.0 714.06 404.0Q709.46 404.0 706.76 401.8Q704.06 399.6 704.06 395.8Q704.06 393.8 704.86 391.6L714.66 361.8Q716.26 356.6 719.06 354.4Q721.86 352.2 726.26 352.2Q730.86 352.2 734.56 355.4Q738.26 358.6 744.26 367.0Q750.66 376.2 756.16 379.79999999999995Q761.66 383.4 769.26 383.4Q774.66 383.4 777.56 381.7Q780.46 380.0 781.66 376.2Q782.06 375.2 782.06 373.2Q782.06 368.4 777.46 364.4Q772.86 360.4 763.26 354.8Q753.06 348.6 746.66 343.70000000000005Q740.26 338.8 735.56 331.4Q730.86 324.0 730.86 314.0Q730.86 307.0 733.06 300.2Q737.26 286.4 750.26 278.0Q763.26 269.6 780.06 269.6Q791.26 269.6 800.76 272.3Q810.26 275.0 820.06 280.8Z"/>
<path d="M162.2 588.4Q161.4 591.0 161.4 593.6Q161.4 595.8 162.0 597.3Q162.60000000000002 598.8 163.3 599.7Q164.0 600.6 164.2 601.0Q166.2 603.0 166.2 605.0Q166.2 605.4 165.8 607.0Q165.0 609.8 162.3 610.9Q159.60000000000002 612.0 154.0 612.0H106.60000000000001Q102.4 612.0 100.10000000000001 610.6Q97.80000000000001 609.2 97.80000000000001 606.8Q97.80000000000001 605.6 98.4 604.2Q99.0 602.6 100.1 601.7Q101.2 600.8 103.2 599.6Q106.4 597.8 108.4 595.5999999999999Q110.4 593.4 111.8 588.4L117.0 571.2H85.80000000000001L80.4 582.6Q77.0 590.0 77.0 594.2Q77.0 596.6 77.8 598.1Q78.6 599.6 80.2 601.2Q81.6 602.8 82.1 603.9Q82.6 605.0 82.2 606.8Q81.4 609.8 78.9 610.9Q76.4 612.0 71.0 612.0H41.2Q36.6 612.0 34.2 610.3Q31.799999999999997 608.6 31.799999999999997 605.8Q31.799999999999997 602.6 34.099999999999994 600.7Q36.4 598.8 41.0 596.6Q47.0 593.6 50.6 590.7Q54.2 587.8 56.8 582.6L92.4 508.8Q100.6 491.6 111.7 483.9Q122.80000000000001 476.2 141.0 476.2Q161.4 476.2 172.60000000000002 484.5Q183.8 492.8 183.8 507.6Q183.8 513.8 181.8 520.4ZM123.0 551.2 133.60000000000002 516.0Q134.4 513.6 134.4 511.0Q134.4 507.2 132.3 505.29999999999995Q130.2 503.4 126.4 503.4Q121.60000000000001 503.4 118.2 506.2Q114.8 509.0 111.4 516.2L95.0 551.2Z"/>
<path d="M354.4 488.8 359.0 485.0Q363.8 481.2 366.9 479.79999999999995Q370.0 478.4 374.0 478.4Q378.8 478.4 381.6 480.5Q384.4 482.6 384.4 486.6Q384.4 488.2 383.8 490.0L375.4 517.6Q374.0 522.4 371.9 524.4Q369.8 526.4 365.6 526.4Q361.2 526.4 357.9 523.7Q354.6 521.0 347.6 512.6Q340.6 504.6 334.9 501.3Q329.2 498.0 323.2 498.0Q318.8 498.0 315.8 500.9Q312.8 503.8 312.8 508.0Q312.8 512.8 317.6 516.9Q322.4 521.0 332.6 527.2Q343.0 533.4 349.8 538.4Q356.6 543.4 361.4 550.8Q366.2 558.2 366.2 567.8Q366.2 574.0 364.2 580.2Q359.4 596.2 345.6 604.5Q331.8 612.8 313.4 612.8Q299.6 612.8 290.20000000000005 609.5999999999999Q280.8 606.4 271.0 598.8L263.8 604.8Q258.8 609.0 255.60000000000002 610.5Q252.4 612.0 248.4 612.0Q243.79999999999998 612.0 241.1 609.8Q238.4 607.6 238.4 603.8Q238.4 601.8 239.2 599.6L249.0 569.8Q250.6 564.6 253.39999999999998 562.4000000000001Q256.2 560.2 260.6 560.2Q265.2 560.2 268.9 563.4000000000001Q272.6 566.6 278.6 575.0Q285.0 584.2 290.5 587.8Q296.0 591.4 303.6 591.4Q309.0 591.4 311.9 589.7Q314.8 588.0 316.0 584.2Q316.4 583.2 316.4 581.2Q316.4 576.4 311.79999999999995 572.4Q307.2 568.4 297.6 562.8Q287.4 556.6 281.0 551.7Q274.6 546.8 269.9 539.4Q265.2 532.0 265.2 522.0Q265.2 515.0 267.4 508.2Q271.6 494.4 284.6 486.0Q297.6 477.6 314.4 477.6Q325.6 477.6 335.1 480.3Q344.6 483.0 354.4 488.8Z"/>
<path d="M527.4 512.4Q527.4 518.4 525.6 525.0Q520.0 545.0 503.5 554.6Q487.0 564.2 461.79999999999995 564.2H441.2L434.4 588.4Q434.0 589.6 434.0 591.6Q434.0 594.4 435.29999999999995 596.2Q436.59999999999997 598.0 439.2 600.4Q441.4 602.4 442.2 603.4Q443.0 604.4 443.0 605.8Q443.0 609.2 439.79999999999995 610.6Q436.59999999999997 612.0 430.4 612.0H380.2Q375.0 612.0 372.4 610.1Q369.79999999999995 608.2 370.59999999999997 604.8Q371.0 603.0 372.1 601.9Q373.2 600.8 375.4 599.4Q378.79999999999995 597.4 380.79999999999995 595.2Q382.79999999999995 593.0 384.0 588.4L408.4 502.2Q409.2 499.6 409.2 497.2Q409.2 495.0 408.5 493.5Q407.79999999999995 492.0 406.59999999999997 490.0Q404.79999999999995 487.4 404.79999999999995 485.8Q404.79999999999995 485.2 405.2 483.6Q406.0 481.0 408.7 479.9Q411.4 478.79999999999995 417.0 478.79999999999995H483.2Q504.4 478.79999999999995 515.9 488.0Q527.4 497.2 527.4 512.4ZM480.2 508.4Q480.2 496.8 469.4 496.8H460.4L446.2 546.2H455.0Q463.4 546.2 468.7 540.9000000000001Q474.0 535.6 478.0 521.4Q480.2 514.0 480.2 508.4Z"/>
<path d="M603.2,460.0 L616.5,496.2 L646.2,471.5 L639.6,509.5 L677.6,503.0 L653.0,532.6 L689.2,546.0 L653.0,559.4 L677.6,589.0 L639.6,582.5 L646.2,620.5 L616.5,595.8 L603.2,632.0 L589.8,595.8 L560.2,620.5 L566.7,582.5 L528.7,589.0 L553.3,559.4 L517.2,546.0 L553.3,532.6 L528.7,503.0 L566.7,509.5 L560.2,471.5 L589.8,496.2 Z"/>
<path d="M865.5200000000001 487.8Q865.5200000000001 490.6 864.32 494.8L859.5200000000001 511.0Q857.32 518.4 854.1200000000001 521.4Q850.9200000000001 524.4 844.9200000000001 524.4Q839.9200000000001 524.4 837.22 521.8Q834.5200000000001 519.2 832.1200000000001 513.6L828.72 505.4Q827.1200000000001 501.6 825.3200000000002 500.20000000000005Q823.5200000000001 498.8 819.72 498.8H815.1200000000001L789.72 588.2Q789.1200000000001 590.8 789.1200000000001 592.8Q789.1200000000001 595.2 789.8200000000002 596.8Q790.5200000000001 598.4 791.9200000000001 600.2Q793.72 603.0 793.72 604.8Q793.72 605.2 793.32 606.8Q792.32 609.4 789.4200000000001 610.5999999999999Q786.5200000000001 611.8 781.1200000000001 611.8H734.12Q729.9200000000001 611.8 727.6200000000001 610.4Q725.32 609.0 725.32 606.4Q725.32 605.2 725.9200000000001 604.0Q726.72 602.2 727.82 601.3Q728.9200000000001 600.4 731.12 599.0Q734.12 597.2 736.12 595.0Q738.12 592.8 739.5200000000001 588.2L764.72 498.8H760.12Q755.72 498.8 752.9200000000001 500.20000000000005Q750.12 501.6 746.9200000000001 505.4L740.32 513.6Q735.72 519.0 731.4200000000001 521.7Q727.12 524.4 722.12 524.4Q717.5200000000001 524.4 714.9200000000001 522.0Q712.32 519.6 712.32 515.4Q712.32 513.4 712.9200000000001 511.0L718.12 492.8Q719.72 487.2 721.72 484.29999999999995Q723.72 481.4 727.4200000000001 480.09999999999997Q731.12 478.79999999999995 737.9200000000001 478.79999999999995H854.5200000000001Q865.5200000000001 478.79999999999995 865.5200000000001 487.8Z"/>
</g>
</svg>
