<svg xmlns="http://www.w3.org/2000/svg" width="1180" height="430" viewBox="0 0 1180 430">
  <rect width="1180" height="430" fill="#0E8A86"/>
  <path d="M -124.2,117.5 C -140.9,117.5 -263.7,96.9 -224.1,117.5 C -184.4,138.0 -2.9,210.0 113.7,240.8 C 230.2,271.6 383.2,287.3 475.3,302.5 C 567.4,317.7 618.6,333.3 666.4,331.8 C 714.1,330.4 700.5,304.4 761.9,293.7 C 823.3,282.9 956.3,290.2 1034.8,267.2 C 1113.3,244.2 1187.8,174.2 1232.7,155.6 C 1277.6,137.0 1292.3,155.6 1304.2,155.6 L 1185.0,435.0 L -5,435.0 Z" fill="#0E8A86"/>
  <g stroke="#0B6E6B" stroke-width="1.3" fill="none" opacity="0.5">
    <path d="M -124.2,133.5 C -140.9,133.5 -263.7,112.9 -224.1,133.5 C -184.4,154.0 -2.9,226.0 113.7,256.8 C 230.2,287.6 383.2,303.3 475.3,318.5 C 567.4,333.7 618.6,349.3 666.4,347.8 C 714.1,346.4 700.5,320.4 761.9,309.7 C 823.3,298.9 956.3,306.2 1034.8,283.2 C 1113.3,260.2 1187.8,190.2 1232.7,171.6 C 1277.6,153.0 1292.3,171.6 1304.2,171.6"/>
    <path d="M -124.2,151.5 C -140.9,151.5 -263.7,130.9 -224.1,151.5 C -184.4,172.0 -2.9,244.0 113.7,274.8 C 230.2,305.6 383.2,321.3 475.3,336.5 C 567.4,351.7 618.6,367.3 666.4,365.8 C 714.1,364.4 700.5,338.4 761.9,327.7 C 823.3,316.9 956.3,324.2 1034.8,301.2 C 1113.3,278.2 1187.8,208.2 1232.7,189.6 C 1277.6,171.0 1292.3,189.6 1304.2,189.6"/>
    <path d="M -124.2,173.5 C -140.9,173.5 -263.7,152.9 -224.1,173.5 C -184.4,194.0 -2.9,266.0 113.7,296.8 C 230.2,327.6 383.2,343.3 475.3,358.5 C 567.4,373.7 618.6,389.3 666.4,387.8 C 714.1,386.4 700.5,360.4 761.9,349.7 C 823.3,338.9 956.3,346.2 1034.8,323.2 C 1113.3,300.2 1187.8,230.2 1232.7,211.6 C 1277.6,193.0 1292.3,211.6 1304.2,211.6"/>
  </g>
  <path d="M -124.2,117.5 C -140.9,117.5 -263.7,96.9 -224.1,117.5 C -184.4,138.0 -2.9,210.0 113.7,240.8 C 230.2,271.6 383.2,287.3 475.3,302.5 C 567.4,317.7 618.6,333.3 666.4,331.8 C 714.1,330.4 700.5,304.4 761.9,293.7 C 823.3,282.9 956.3,290.2 1034.8,267.2 C 1113.3,244.2 1187.8,174.2 1232.7,155.6 C 1277.6,137.0 1292.3,155.6 1304.2,155.6 L 1185.0,-5 L -5,-5 Z" fill="#E7D8BF"/>
  <path d="M -124.2,117.5 C -140.9,117.5 -263.7,96.9 -224.1,117.5 C -184.4,138.0 -2.9,210.0 113.7,240.8 C 230.2,271.6 383.2,287.3 475.3,302.5 C 567.4,317.7 618.6,333.3 666.4,331.8 C 714.1,330.4 700.5,304.4 761.9,293.7 C 823.3,282.9 956.3,290.2 1034.8,267.2 C 1113.3,244.2 1187.8,174.2 1232.7,155.6 C 1277.6,137.0 1292.3,155.6 1304.2,155.6" fill="none" stroke="#17120C" stroke-width="2.4" opacity="0.85"/>
  <path d="M 155.8,187.9 L 303.1,189.2 L 394.7,240.2 L 997.9,218.2" fill="none" stroke="#FF5436" stroke-width="3.4"
        stroke-dasharray="2 9" stroke-linecap="round"/>
  <circle cx="155.8" cy="187.9" r="11" fill="#F6EFE1"/><circle cx="155.8" cy="187.9" r="7" fill="#FF5436"/><circle cx="303.1" cy="189.2" r="11" fill="#F6EFE1"/><circle cx="303.1" cy="189.2" r="7" fill="#FF5436"/><circle cx="394.7" cy="240.2" r="11" fill="#F6EFE1"/><circle cx="394.7" cy="240.2" r="7" fill="#FF5436"/><circle cx="997.9" cy="218.2" r="11" fill="#F6EFE1"/><circle cx="997.9" cy="218.2" r="7" fill="#FF5436"/>
  <g transform="translate(1004,390)">
    <line x1="0" y1="0" x2="225.9" y2="0" stroke="#17120C" stroke-width="2"/>
    <line x1="0" y1="-5" x2="0" y2="5" stroke="#17120C" stroke-width="2"/>
    <line x1="225.9" y1="-5" x2="225.9" y2="5" stroke="#17120C" stroke-width="2"/>
    <text x="112.9" y="18" font-family="Avenir Next,sans-serif" font-size="12"
          fill="#17120C" text-anchor="middle" letter-spacing="1">10 KM</text>
  </g>
</svg>